<?xml version="1.0" encoding="utf-8"?>
<!-- Generator: Adobe Illustrator 23.0.0, SVG Export Plug-In . SVG Version: 6.00 Build 0)  -->
<svg version="1.1" id="Layer_1" xmlns="http://www.w3.org/2000/svg" xmlns:xlink="http://www.w3.org/1999/xlink" x="0px" y="0px"
	 viewBox="0 0 900 250" style="enable-background:new 0 0 900 250;" xml:space="preserve">
<style type="text/css">
	.st0{fill:#FFFFFF;}
	.st1{clip-path:url(#SVGID_2_);fill:#F5F6FF;}
	.st2{clip-path:url(#SVGID_2_);fill:#E5E9FC;}
	.st3{clip-path:url(#SVGID_2_);}
	.st4{fill:#4F4E59;}
	.st5{fill:#F7AD2F;}
	.st6{fill:#A4311F;}
	.st7{fill:#FFBF6F;}
	.st8{fill:#FFE8C0;}
	.st9{fill:#FF3154;}
	.st10{fill:#793154;}
	.st11{fill:#FFD9EB;}
	.st12{fill:#CD3154;}
	.st13{fill:#FFA09A;}
	.st14{fill:#2D2B32;}
	.st15{fill:#ED8436;}
	.st16{fill:#FFB52D;}
	.st17{fill:#7784DD;}
	.st18{fill:#2945B4;}
	.st19{fill:#D6D8FF;}
	.st20{fill:#D4D9FE;}
	.st21{fill:#FF7F00;}
	.st22{fill:#2B45B9;}
	.st23{fill:#F5F6FF;}
	.st24{fill:#4A64FD;}
	.st25{fill:#4B1F1A;}
	.st26{fill:#FFA06F;}
	.st27{clip-path:url(#SVGID_2_);fill:#FFA06F;}
	.st28{clip-path:url(#SVGID_2_);fill:none;stroke:#FA6941;stroke-width:0.7962;stroke-linejoin:round;stroke-miterlimit:10;}
	.st29{clip-path:url(#SVGID_2_);fill:#FFFFFF;}
	.st30{fill:none;stroke:#FA6941;stroke-width:0.7962;stroke-linejoin:round;stroke-miterlimit:10;}
	.st31{fill:none;stroke:#A4311F;stroke-width:1.1944;stroke-miterlimit:10;}
	.st32{fill:none;stroke:#FFCFAD;stroke-width:1.1944;stroke-miterlimit:10;}
	.st33{clip-path:url(#SVGID_2_);fill:#2945B4;}
	.st34{clip-path:url(#SVGID_2_);fill:#7784DD;}
	.st35{fill:#3957EA;}
	.st36{clip-path:url(#SVGID_2_);fill:#2B45B9;}
	.st37{clip-path:url(#SVGID_2_);fill:url(#SVGID_3_);}
</style>
<rect y="0" class="st0" width="900" height="250"/>
<g>
	<defs>
		<rect id="SVGID_1_" width="900" height="249"/>
	</defs>
	<clipPath id="SVGID_2_">
		<use xlink:href="#SVGID_1_"  style="overflow:visible;"/>
	</clipPath>
	<rect class="st1" width="900" height="249"/>
	<path class="st2" d="M900,252v-83.61c-0.78-0.07-1.55-0.13-2.33-0.15c-14.17-0.33-28.13,8.16-42.12,5.29
		c-17.97-3.69-30-24.46-45.36-36.69c-26.31-20.95-64.73-13.3-84.52,16.84c-7.06,10.76-12.2,24.14-21.74,31.3
		c-14.02,10.52-32.07,3.9-48.13,7.68C633.6,197.87,611.52,224.12,609,252H900z"/>
	<path class="st2" d="M0,0v150c7.93-1.97,15.61-4.38,22.92-7.2c9.24-3.58,18.38-8.23,21.81-14.9c3.23-6.28,0.8-13.18,2.1-19.75
		c3.84-19.39,36.95-29.5,66-33.9c19.24-2.91,42.75-7.28,46.84-19.95c2.17-6.72-2.33-13.75-0.48-20.52
		c2.9-10.62,20.4-16.91,36.73-18.15s32.92,0.97,49.27-0.19C263.23,14.17,280.28,8.46,293,0H0z"/>
	<g class="st3">
		<path class="st4" d="M417.46,189.13c-0.22,0-0.39-0.17-0.39-0.38v-23.79c0-3.42-2.88-6.21-6.41-6.21h-6.18
			c-3.54,0-6.41,2.78-6.41,6.21v23.79c0,0.21-0.18,0.38-0.39,0.38s-0.39-0.17-0.39-0.38v-23.79c0-3.84,3.23-6.97,7.2-6.97h6.18
			c3.97,0,7.2,3.13,7.2,6.97v23.79C417.85,188.96,417.68,189.13,417.46,189.13z"/>
	</g>
	<g class="st3">
		<polygon class="st5" points="436.05,250.76 366.5,250.76 386.89,180.42 421.14,180.42 		"/>
	</g>
	<g class="st3">
		<polygon class="st6" points="436.05,250.76 455.99,250.76 428.51,180.29 421.14,180.42 		"/>
	</g>
	<g class="st3">
		<g>
			<path class="st7" d="M437.5,250.4c0.76-2.16,1.53-4.32,2.29-6.48c0.32-0.9,0.56-2.05,1.3-2.74c1.1-1.03,2.57,0.02,3.58,0.66
				c3.49,2.22,6.61,4.96,9.26,8.09c0.11,0.13,0.31-0.06,0.2-0.19c-1.54-1.82-3.23-3.51-5.07-5.04c-1.71-1.42-3.63-3.01-5.69-3.94
				c-1.74-0.79-2.81,0.28-3.39,1.82c-0.97,2.56-1.83,5.17-2.74,7.75C437.17,250.49,437.44,250.56,437.5,250.4L437.5,250.4z"/>
		</g>
	</g>
	<g class="st3">
		<g>
			<path class="st7" d="M431.56,203.12c3.44,12.39,6.87,24.78,10.31,37.18c0.05,0.17,0.31,0.1,0.27-0.07
				c-3.44-12.39-6.87-24.78-10.31-37.18C431.78,202.89,431.51,202.96,431.56,203.12L431.56,203.12z"/>
		</g>
	</g>
	<g class="st3">
		<path class="st8" d="M392.49,192.26c-2,0-3.62-1.57-3.62-3.51c0-1.93,1.63-3.51,3.62-3.51c2,0,3.62,1.57,3.62,3.51
			C396.11,190.69,394.49,192.26,392.49,192.26z M392.49,185.92c-1.61,0-2.93,1.27-2.93,2.83s1.31,2.83,2.93,2.83
			c1.61,0,2.93-1.27,2.93-2.83S394.1,185.92,392.49,185.92z"/>
	</g>
	<g class="st3">
		<path class="st8" d="M412.28,192.26c-2,0-3.62-1.57-3.62-3.51c0-1.93,1.63-3.51,3.62-3.51c2,0,3.62,1.57,3.62,3.51
			C415.9,190.69,414.28,192.26,412.28,192.26z M412.28,185.92c-1.61,0-2.93,1.27-2.93,2.83s1.31,2.83,2.93,2.83
			c1.61,0,2.93-1.27,2.93-2.83S413.89,185.92,412.28,185.92z"/>
	</g>
	<g class="st3">
		<path class="st4" d="M412.28,189.13c-0.22,0-0.39-0.17-0.39-0.38v-23.79c0-3.42-2.88-6.21-6.41-6.21h-6.18
			c-3.54,0-6.41,2.78-6.41,6.21v23.79c0,0.21-0.18,0.38-0.39,0.38c-0.22,0-0.39-0.17-0.39-0.38v-23.79c0-3.84,3.23-6.97,7.2-6.97
			h6.18c3.97,0,7.2,3.13,7.2,6.97v23.79C412.67,188.96,412.5,189.13,412.28,189.13z"/>
	</g>
	<g class="st3">
		<path class="st4" d="M452.24,206.37c-0.16,0-0.28-0.1-0.28-0.22v-13.77c0-1.98-2.07-3.59-4.62-3.59h-4.45
			c-2.55,0-4.62,1.61-4.62,3.59v13.77c0,0.12-0.13,0.22-0.28,0.22c-0.16,0-0.28-0.1-0.28-0.22v-13.77c0-2.22,2.33-4.03,5.19-4.03
			h4.45c2.86,0,5.18,1.81,5.18,4.03v13.77C452.53,206.27,452.4,206.37,452.24,206.37z"/>
	</g>
	<g class="st3">
		<polygon class="st9" points="465.63,250.76 415.53,250.76 430.23,200.09 454.9,200.09 		"/>
	</g>
	<g class="st3">
		<polygon class="st10" points="465.63,250.76 480,250.76 460.21,200 454.9,200.09 		"/>
	</g>
	<g class="st3">
		<g>
			<path class="st9" d="M466.68,250.5c0.55-1.56,1.1-3.11,1.65-4.67c0.23-0.65,0.41-1.48,0.94-1.97c0.8-0.74,1.85,0.02,2.58,0.48
				c2.52,1.6,4.76,3.57,6.67,5.83c0.08,0.1,0.22-0.04,0.14-0.14c-1.11-1.31-2.33-2.53-3.65-3.63c-1.23-1.02-2.62-2.17-4.1-2.83
				c-1.26-0.57-2.02,0.2-2.44,1.31c-0.7,1.84-1.32,3.72-1.97,5.58C466.44,250.56,466.64,250.62,466.68,250.5L466.68,250.5z"/>
		</g>
	</g>
	<g class="st3">
		<g>
			<path class="st9" d="M462.4,216.45c2.47,8.93,4.95,17.85,7.42,26.78c0.03,0.12,0.23,0.07,0.19-0.05
				c-2.47-8.93-4.95-17.85-7.42-26.78C462.56,216.28,462.36,216.33,462.4,216.45L462.4,216.45z"/>
		</g>
	</g>
	<g class="st3">
		<path class="st11" d="M434.26,208.62c-1.44,0-2.61-1.13-2.61-2.53c0-1.39,1.17-2.53,2.61-2.53s2.61,1.13,2.61,2.53
			C436.87,207.49,435.7,208.62,434.26,208.62z M434.26,204.06c-1.16,0-2.11,0.92-2.11,2.04c0,1.12,0.95,2.04,2.11,2.04
			c1.16,0,2.11-0.91,2.11-2.04C436.37,204.97,435.42,204.06,434.26,204.06z"/>
	</g>
	<g class="st3">
		<path class="st11" d="M448.51,208.62c-1.44,0-2.61-1.13-2.61-2.53c0-1.39,1.17-2.53,2.61-2.53c1.44,0,2.61,1.13,2.61,2.53
			C451.12,207.49,449.95,208.62,448.51,208.62z M448.51,204.06c-1.16,0-2.11,0.92-2.11,2.04c0,1.12,0.95,2.04,2.11,2.04
			c1.16,0,2.11-0.91,2.11-2.04C450.62,204.97,449.67,204.06,448.51,204.06z"/>
	</g>
	<g class="st3">
		<path class="st4" d="M448.51,206.37c-0.16,0-0.28-0.1-0.28-0.22v-13.77c0-1.98-2.07-3.59-4.62-3.59h-4.45
			c-2.55,0-4.62,1.61-4.62,3.59v13.77c0,0.12-0.13,0.22-0.28,0.22c-0.16,0-0.28-0.1-0.28-0.22v-13.77c0-2.22,2.33-4.03,5.19-4.03
			h4.45c2.86,0,5.18,1.81,5.18,4.03v13.77C448.79,206.27,448.67,206.37,448.51,206.37z"/>
	</g>
	<g class="st3">
		<g>
			<g>
				<g>
					
						<rect x="192.39" y="207.08" transform="matrix(4.684828e-03 -1 1 4.684828e-03 -17.8794 441.2904)" class="st9" width="40.7" height="45.1"/>
				</g>
				<g>
					
						<rect x="208.32" y="191.22" transform="matrix(4.684828e-03 -1 1 4.684828e-03 -1.952 425.5852)" class="st12" width="8.99" height="45.1"/>
				</g>
				<g>
					
						<rect x="207.23" y="180.3" transform="matrix(4.686516e-03 -1 1 4.686516e-03 5.299 418.4347)" class="st13" width="11.24" height="52.5"/>
				</g>
			</g>
			<g>
				<g>
					<path class="st14" d="M211.94,249.85c-1.09-16.28-1.39-32.61-0.91-48.92c0.01-0.26-0.4-0.29-0.41-0.03
						c-0.48,16.35-0.17,32.71,0.92,49.03C211.56,250.19,211.96,250.11,211.94,249.85L211.94,249.85z"/>
				</g>
			</g>
			<g>
				<g>
					<path class="st14" d="M210.88,201.52c6.6-3.74,12.53-10.07,12.45-18.11c-0.03-2.9-1.18-7.03-4.91-6.34
						c-3.61,0.67-5.12,5.16-5.8,8.25c-0.49,2.2-0.7,4.46-0.96,6.7c-0.3,2.71-0.61,5.43-0.91,8.14c-0.03,0.26,0.38,0.29,0.41,0.03
						c0.43-3.86,0.81-7.73,1.31-11.58c0.44-3.36,1.15-7.59,3.8-9.99c1.46-1.32,3.78-1.78,5.23-0.18c1.2,1.33,1.42,3.37,1.42,5.08
						c0,3.26-1.08,6.47-2.83,9.2c-2.3,3.6-5.71,6.33-9.39,8.42C210.47,201.28,210.65,201.65,210.88,201.52L210.88,201.52z"/>
				</g>
			</g>
			<g>
				<g>
					<path class="st14" d="M211.04,201.61c-0.9-4.45-1.85-8.95-3.72-13.11c-1.48-3.28-3.92-7.48-7.44-8.91
						c-3.17-1.29-5.78,1.59-5.67,4.67c0.12,3.67,2.83,7.34,5.23,9.94c3.02,3.27,6.86,5.69,11.09,7.06c0.25,0.08,0.38-0.31,0.13-0.39
						c-4.3-1.39-8.17-3.88-11.19-7.25c-2.58-2.88-6.81-8.59-3.94-12.48c3.71-5.03,9.32,3.33,10.83,6.29
						c2.26,4.45,3.3,9.4,4.28,14.25C210.69,201.94,211.09,201.87,211.04,201.61L211.04,201.61z"/>
				</g>
			</g>
			<g>
				<g>
					<path class="st14" d="M211.39,200.76c2.62-3.28,3.82-7.41,6.38-10.72c1.47-1.9,3.35-3.47,5.47-4.6
						c1.86-0.99,5.11-2.54,7.05-0.99c2.06,1.64,1.09,4.71-0.47,6.28c-1.64,1.66-3.94,2.68-5.96,3.78c-4.43,2.4-8.94,4.66-13.51,6.79
						c-0.24,0.11-0.06,0.48,0.18,0.37c4.34-2.03,8.63-4.17,12.86-6.43c2.91-1.56,7.57-3.34,8.35-7c0.58-2.72-1.15-5.09-4.01-4.77
						c-3.69,0.4-7.36,2.91-9.73,5.66c-2.94,3.42-4.15,7.92-6.96,11.42C210.89,200.75,211.23,200.97,211.39,200.76L211.39,200.76z"/>
				</g>
			</g>
		</g>
		<g>
			<g>
				<path class="st14" d="M196.97,235.68c1.61,2.87,3.23,5.74,4.84,8.61c0.16,0.28,0.61,0.06,0.45-0.23
					c-1.61-2.87-3.23-5.74-4.84-8.61C197.27,235.17,196.81,235.4,196.97,235.68L196.97,235.68z"/>
			</g>
		</g>
		<g>
			<g>
				<path class="st14" d="M199.29,232.7c1.05,2.23,2.09,4.47,3.14,6.7c0.14,0.29,0.59,0.07,0.45-0.23c-1.05-2.23-2.09-4.47-3.14-6.7
					C199.6,232.18,199.15,232.4,199.29,232.7L199.29,232.7z"/>
			</g>
		</g>
		<g>
			<g>
				<path class="st14" d="M223.31,225.97c1.03-2.45,2.05-4.9,3.08-7.34c0.13-0.3-0.35-0.46-0.48-0.16c-1.03,2.45-2.05,4.9-3.08,7.34
					C222.7,226.11,223.18,226.27,223.31,225.97L223.31,225.97z"/>
			</g>
		</g>
	</g>
	<g class="st3">
		<g>
			<g>
				<g>
					
						<rect x="247.28" y="225.35" transform="matrix(1 -4.685173e-03 4.685173e-03 1 -1.1084 1.2226)" class="st15" width="26.23" height="23.67"/>
				</g>
				<g>
					
						<rect x="245.07" y="220.5" transform="matrix(1 -4.686098e-03 4.686098e-03 1 -1.0457 1.2224)" class="st16" width="30.54" height="6.54"/>
				</g>
			</g>
			<g>
				<g>
					<path class="st14" d="M260.86,248.95c0.63-9.47,0.81-18.96,0.53-28.45c0-0.15,0.23-0.17,0.24-0.02
						c0.28,9.51,0.1,19.02-0.53,28.51C261.09,249.15,260.85,249.1,260.86,248.95L260.86,248.95z"/>
				</g>
			</g>
			<g>
				<g>
					<path class="st14" d="M261.48,220.84c-3.84-2.18-7.29-5.85-7.24-10.53c0.02-1.69,0.68-4.09,2.86-3.69c2.1,0.39,2.98,3,3.38,4.8
						c0.28,1.28,0.41,2.59,0.56,3.9c0.18,1.58,0.35,3.16,0.53,4.74c0.02,0.15-0.22,0.17-0.24,0.02c-0.25-2.24-0.47-4.49-0.76-6.73
						c-0.26-1.95-0.67-4.41-2.21-5.81c-0.85-0.77-2.2-1.04-3.04-0.11c-0.7,0.77-0.82,1.96-0.82,2.96c0,1.9,0.63,3.76,1.65,5.35
						c1.34,2.09,3.32,3.68,5.46,4.9C261.72,220.7,261.61,220.92,261.48,220.84L261.48,220.84z"/>
				</g>
			</g>
			<g>
				<g>
					<path class="st14" d="M261.39,220.89c0.52-2.59,1.07-5.21,2.16-7.63c0.86-1.91,2.28-4.35,4.32-5.18
						c1.85-0.75,3.36,0.92,3.3,2.72c-0.07,2.14-1.65,4.27-3.04,5.78c-1.76,1.9-3.99,3.31-6.45,4.1c-0.15,0.05-0.22-0.18-0.08-0.23
						c2.5-0.81,4.75-2.26,6.51-4.21c1.5-1.68,3.96-4.99,2.29-7.26c-2.16-2.93-5.42,1.94-6.3,3.66c-1.32,2.59-1.92,5.47-2.49,8.29
						C261.59,221.09,261.36,221.04,261.39,220.89L261.39,220.89z"/>
				</g>
			</g>
			<g>
				<g>
					<path class="st14" d="M261.18,220.4c-1.52-1.9-2.22-4.31-3.71-6.23c-0.85-1.1-1.95-2.02-3.18-2.68
						c-1.08-0.58-2.97-1.48-4.1-0.58c-1.2,0.95-0.63,2.74,0.27,3.65c0.95,0.96,2.29,1.56,3.47,2.2c2.58,1.4,5.2,2.71,7.86,3.95
						c0.14,0.06,0.03,0.28-0.11,0.21c-2.53-1.18-5.02-2.42-7.48-3.74c-1.69-0.91-4.4-1.94-4.86-4.07c-0.34-1.58,0.67-2.96,2.33-2.78
						c2.15,0.23,4.28,1.69,5.66,3.29c1.71,1.99,2.41,4.6,4.05,6.64C261.48,220.39,261.28,220.52,261.18,220.4L261.18,220.4z"/>
				</g>
			</g>
		</g>
		<g>
			<g>
				<path class="st14" d="M269.57,240.71c-0.94,1.67-1.88,3.34-2.82,5.01c-0.09,0.16-0.36,0.03-0.26-0.13
					c0.94-1.67,1.88-3.34,2.82-5.01C269.4,240.41,269.66,240.54,269.57,240.71L269.57,240.71z"/>
			</g>
		</g>
		<g>
			<g>
				<path class="st14" d="M254.25,235.06c-0.6-1.42-1.19-2.85-1.79-4.27c-0.07-0.17,0.21-0.27,0.28-0.09
					c0.6,1.42,1.19,2.85,1.79,4.27C254.61,235.14,254.33,235.24,254.25,235.06L254.25,235.06z"/>
			</g>
		</g>
	</g>
	<g class="st3">
		<g>
			<g>
				<g>
					
						<rect x="275.03" y="182.6" transform="matrix(0.5105 -0.8599 0.8599 0.5105 -26.6655 338.7804)" class="st15" width="18.43" height="20.42"/>
				</g>
				<g>
					
						<rect x="287.03" y="171.95" transform="matrix(0.5105 -0.8599 0.8599 0.5105 -16.3327 338.9701)" class="st16" width="5.09" height="23.77"/>
				</g>
			</g>
			<g>
				<g>
					<path class="st14" d="M279.84,200.85c4.22-6.07,8.14-12.33,11.75-18.78c0.06-0.1,0.22-0.02,0.16,0.08
						c-3.62,6.46-7.55,12.74-11.78,18.82C279.91,201.07,279.78,200.95,279.84,200.85L279.84,200.85z"/>
				</g>
			</g>
			<g>
				<g>
					<path class="st14" d="M291.51,182.34c-1.69-2.99-2.52-6.83-0.61-9.93c0.69-1.12,2.09-2.45,3.38-1.32
						c1.25,1.1,0.79,3.19,0.33,4.56c-0.32,0.97-0.77,1.89-1.19,2.82c-0.51,1.12-1.03,2.25-1.54,3.37c-0.05,0.11-0.21,0.02-0.16-0.08
						c0.73-1.6,1.49-3.19,2.19-4.8c0.61-1.41,1.32-3.21,0.85-4.76c-0.26-0.85-1.05-1.57-1.99-1.29c-0.78,0.24-1.33,0.98-1.73,1.64
						c-0.76,1.26-1.09,2.76-1.04,4.23c0.05,1.93,0.74,3.79,1.68,5.46C291.73,182.34,291.57,182.44,291.51,182.34L291.51,182.34z"/>
				</g>
			</g>
			<g>
				<g>
					<path class="st14" d="M291.43,182.33c1.39-1.52,2.8-3.05,4.5-4.22c1.34-0.93,3.26-1.99,4.96-1.73
						c1.53,0.24,1.87,1.96,1.11,3.13c-0.9,1.4-2.81,2.19-4.35,2.64c-1.93,0.56-3.99,0.61-5.95,0.16c-0.12-0.03-0.08-0.21,0.04-0.18
						c1.99,0.46,4.08,0.4,6.03-0.21c1.67-0.52,4.64-1.75,4.44-3.93c-0.27-2.82-4.39-0.88-5.67-0.08c-1.91,1.2-3.47,2.88-4.98,4.54
						C291.49,182.54,291.35,182.42,291.43,182.33L291.43,182.33z"/>
				</g>
			</g>
			<g>
				<g>
					<path class="st14" d="M291.49,181.92c-0.25-1.88,0.24-3.76,0.02-5.65c-0.13-1.08-0.49-2.13-1.05-3.06
						c-0.49-0.82-1.39-2.18-2.51-2.03c-1.18,0.16-1.52,1.57-1.28,2.55c0.25,1.03,0.9,1.96,1.43,2.86c1.16,1.96,2.39,3.89,3.66,5.78
						c0.07,0.1-0.09,0.2-0.16,0.1c-1.21-1.8-2.38-3.63-3.49-5.49c-0.77-1.29-2.16-3.06-1.61-4.66c0.41-1.19,1.63-1.71,2.67-0.92
						c1.34,1.02,2.18,2.84,2.46,4.46c0.34,2.01-0.23,4.04,0.04,6.06C291.69,182.03,291.51,182.04,291.49,181.92L291.49,181.92z"/>
				</g>
			</g>
		</g>
		<g>
			<g>
				<path class="st14" d="M288.96,198.84c-1.3,0.74-2.59,1.48-3.89,2.21c-0.13,0.07-0.25-0.12-0.12-0.19
					c1.3-0.74,2.59-1.48,3.89-2.21C288.96,198.57,289.08,198.76,288.96,198.84L288.96,198.84z"/>
			</g>
		</g>
		<g>
			<g>
				<path class="st14" d="M280.99,188.93c0.17-1.19,0.34-2.38,0.51-3.57c0.02-0.15,0.24-0.1,0.22,0.05
					c-0.17,1.19-0.34,2.38-0.51,3.57C281.2,189.13,280.97,189.08,280.99,188.93L280.99,188.93z"/>
			</g>
		</g>
	</g>
	<g class="st3">
		<g>
			<path class="st17" d="M176.81,44.2c0,0-1.36-16.98,23.19-9.49C188.49,55.4,176.81,44.2,176.81,44.2z"/>
			<path class="st17" d="M194.97,36.35c-0.05-0.14-0.2-0.21-0.34-0.16c-0.05,0.02-2.03,0.75-4.97,1.96
				c0.14-0.57,0.57-1.84,1.85-2.68c0.12-0.08,0.16-0.24,0.08-0.37c-0.08-0.12-0.24-0.16-0.37-0.08c-1.89,1.23-2.14,3.27-2.15,3.35
				c0,0,0,0.01,0,0.01c-2.4,1-5.35,2.28-8.41,3.73c0.73-3.63,3.45-5.74,3.48-5.76c0.12-0.09,0.14-0.25,0.05-0.37
				c-0.09-0.12-0.25-0.14-0.37-0.05c-0.13,0.1-3.1,2.4-3.75,6.47c-3.15,1.52-6.38,3.21-9.19,4.96c-0.12,0.08-0.16,0.24-0.09,0.36
				c0.05,0.08,0.14,0.12,0.23,0.12c0.05,0,0.1-0.01,0.14-0.04c2.79-1.74,6-3.42,9.13-4.92c0,0,0.01,0,0.01,0
				c0.08,0,0.14-0.04,0.19-0.1c1.27-0.61,2.51-1.18,3.72-1.72c0.01,0.01,0.01,0.03,0.02,0.04c0.12,0.1,2.98,2.42,6.04,2.42
				c0.09,0,0.18,0,0.27-0.01c0.15-0.01,0.26-0.13,0.25-0.28c-0.01-0.15-0.14-0.27-0.28-0.25c-2.56,0.12-5.11-1.66-5.78-2.17
				c5.54-2.47,9.98-4.11,10.06-4.14C194.95,36.64,195.02,36.48,194.97,36.35z"/>
		</g>
	</g>
	<g class="st3">
		<g>
			<path class="st18" d="M404.71,12.85c18.53-3.89,20.22,11,20.22,11S408.77,27.63,404.71,12.85z"/>
			<path class="st18" d="M404.71,12.85c7.35,7.62,20.22,11,20.22,11S408.77,27.63,404.71,12.85z"/>
		</g>
	</g>
	<g class="st3">
		<path class="st19" d="M438.46,56.14c-6.17-11.96,3.71-15.93,3.71-15.93S447.82,50.56,438.46,56.14z"/>
		<path class="st19" d="M438.46,56.14c3.83-6.48,3.71-15.93,3.71-15.93S447.82,50.56,438.46,56.14z"/>
	</g>
	<g class="st3">
		<path class="st17" d="M442.58,143.32c0,0-14.14-2.05-12.76,19.32C448.38,155.69,442.58,143.32,442.58,143.32z"/>
		<path class="st17" d="M431.13,160.18l0.41,0.22c0.07-0.12,6.63-12.29,12.96-19.38l-0.35-0.31
			C437.79,147.84,431.2,160.05,431.13,160.18z"/>
		<polygon class="st17" points="431.02,156.2 431.06,156.67 433.46,156.48 434.5,159.03 434.93,158.86 433.76,155.99 		"/>
		<polygon class="st17" points="431.55,152.78 431.59,153.24 435.85,152.83 437.17,156.95 437.62,156.81 436.18,152.33 		"/>
		<polygon class="st17" points="433.36,148.87 433.36,149.34 438.04,149.29 439.44,154.29 439.89,154.17 438.4,148.82 		"/>
		<polygon class="st17" points="436.35,145.81 436.39,146.28 440.5,145.92 441.59,150.79 442.04,150.69 440.87,145.42 		"/>
	</g>
	<g class="st3">
		<path class="st19" d="M460.51,107.03c0,0,12.65,6.99,18.98-13.73C459.44,93.25,460.51,107.03,460.51,107.03z"/>
		<path class="st19" d="M477.37,95.17l-0.31-0.36c-0.11,0.09-10.67,9.26-19.19,13.71l0.22,0.42
			C466.66,104.47,477.26,95.26,477.37,95.17z"/>
		<polygon class="st19" points="476.05,98.97 476.18,98.52 473.85,97.84 473.78,95.05 473.3,95.06 473.38,98.2 		"/>
		<polygon class="st19" points="474.33,102.02 474.45,101.57 470.28,100.44 470.5,96.07 470.03,96.04 469.79,100.8 		"/>
		<polygon class="st19" points="471.22,105.08 471.39,104.63 466.93,103 467.4,97.77 466.93,97.73 466.43,103.32 		"/>
		<polygon class="st19" points="467.3,106.9 467.43,106.45 463.4,105.31 464.12,100.32 463.65,100.25 462.88,105.65 		"/>
	</g>
	<g class="st3">
		<g>
			<path class="st19" d="M121.34,133.63c0,0,3.29-16.83-22.41-16.43C106.18,139.86,121.34,133.63,121.34,133.63z"/>
			<path class="st19" d="M101.76,119.03l-0.16,0.27c0.14,0.09,14.35,8.68,22.49,16.69l0.22-0.22
				C116.14,127.72,101.9,119.11,101.76,119.03z"/>
			<polygon class="st19" points="103.03,123.13 103.14,123.43 106.56,122.22 106.46,119.02 106.15,119.03 106.24,122.01 			"/>
			<polygon class="st19" points="105.36,126.46 105.44,126.76 110.8,125.33 110.54,119.86 110.23,119.87 110.48,125.1 			"/>
			<polygon class="st19" points="108.41,129.34 108.48,129.65 114.88,128.19 115.11,122.24 114.8,122.23 114.58,127.94 			"/>
			<polygon class="st19" points="112.47,132.12 112.52,132.43 118.8,131.35 118.6,126.02 118.29,126.03 118.48,131.09 			"/>
		</g>
	</g>
	<g class="st3">
		<g>
			<path class="st17" d="M120.29,238.24c-0.05,0-0.1-0.01-0.15-0.02c-39.38-12.33-56.06-58.25-56.22-58.71
				c-0.09-0.26,0.04-0.55,0.3-0.64c0.26-0.09,0.55,0.04,0.64,0.3c0.16,0.46,16.68,45.91,55.58,58.09c0.26,0.08,0.41,0.36,0.33,0.63
				C120.7,238.1,120.5,238.24,120.29,238.24z"/>
			<g>
				<g>
					<path class="st17" d="M111.78,234.76c0,0-20.1-8.37-32.2,7.31C79.58,242.07,92.78,250.39,111.78,234.76z"/>
				</g>
				<g>
					<path class="st17" d="M111.87,234.87c0,0-12.76-17.64-0.28-33.02C111.6,201.85,122.73,212.79,111.87,234.87z"/>
				</g>
			</g>
			<g>
				<g>
					<path class="st17" d="M94.87,223.48c0,0-16.89-9.88-29.56,2.63C65.31,226.11,76.06,235.12,94.87,223.48z"/>
				</g>
				<g>
					<path class="st17" d="M94.94,223.59c0,0-9.24-17.25,3.73-29.44C98.67,194.15,107.27,205.23,94.94,223.59z"/>
				</g>
			</g>
			<g>
				<g>
					<path class="st17" d="M81.18,209.01c0,0-13.83-9.91-25.8-0.1C55.38,208.9,63.97,217.56,81.18,209.01z"/>
				</g>
				<g>
					<path class="st17" d="M81.23,209.11c0,0-6.61-15.67,5.6-25.18C86.83,183.93,93.38,194.21,81.23,209.11z"/>
				</g>
			</g>
			<g>
				<g>
					<path class="st17" d="M70.76,193.6c0,0-10.08-9.87-21.13-3.34C49.63,190.26,55.57,198.44,70.76,193.6z"/>
				</g>
				<g>
					<path class="st17" d="M70.79,193.69c0,0-3.44-13.68,7.77-19.93C78.56,173.76,82.63,183.02,70.79,193.69z"/>
				</g>
			</g>
			<g>
				<g>
					<path class="st17" d="M64.66,179.98c0,0-7.37-7.22-15.46-2.44C49.2,177.54,53.55,183.52,64.66,179.98z"/>
				</g>
				<g>
					<path class="st17" d="M64.68,180.05c0,0-2.51-10.01,5.68-14.58C70.36,165.47,73.34,172.24,64.68,180.05z"/>
				</g>
			</g>
		</g>
	</g>
	<g class="st3">
		<g>
			<path class="st17" d="M896.36,7.51c-0.01,0.05-0.03,0.1-0.06,0.14c-21.03,35.51-69.55,41.21-70.04,41.26
				c-0.27,0.03-0.52-0.17-0.55-0.44c-0.03-0.27,0.17-0.52,0.44-0.55c0.48-0.05,48.52-5.71,69.29-40.78
				c0.14-0.24,0.45-0.32,0.68-0.18C896.32,7.08,896.41,7.3,896.36,7.51z"/>
			<g>
				<g>
					<path class="st17" d="M891.02,14.99c0,0-12.75,17.65-0.27,33.02C890.75,48.02,901.88,37.08,891.02,14.99z"/>
				</g>
				<g>
					<path class="st17" d="M891.15,14.93c0,0-20.1,8.37-32.2-7.3C858.95,7.63,872.14-0.7,891.15,14.93z"/>
				</g>
			</g>
			<g>
				<g>
					<path class="st17" d="M876.16,28.87c0,0-13.49,14.18-4.22,29.38C871.94,58.25,883.18,49.85,876.16,28.87z"/>
				</g>
				<g>
					<path class="st17" d="M876.29,28.83c0,0-18.91,5.04-27.8-10.38C848.48,18.45,861.24,12.62,876.29,28.83z"/>
				</g>
			</g>
			<g>
				<g>
					<path class="st17" d="M858.94,38.87c0,0-12.81,11.19-6.01,25.09C852.92,63.96,863.32,57.59,858.94,38.87z"/>
				</g>
				<g>
					<path class="st17" d="M859.05,38.85c0,0-16.77,2.84-23.23-11.23C835.82,27.62,847.33,23.61,859.05,38.85z"/>
				</g>
			</g>
			<g>
				<g>
					<path class="st17" d="M841.55,45.49c0,0-11.91,7.55-8.1,19.8C833.46,65.29,842.78,61.38,841.55,45.49z"/>
				</g>
				<g>
					<path class="st17" d="M841.65,45.48c0,0-14.1,0.21-17.62-12.13C824.03,33.35,833.97,31.51,841.65,45.48z"/>
				</g>
			</g>
			<g>
				<g>
					<path class="st17" d="M826.9,48.3c0,0-8.71,5.52-5.92,14.48C820.97,62.78,827.79,59.93,826.9,48.3z"/>
				</g>
				<g>
					<path class="st17" d="M826.96,48.3c0,0-10.32,0.15-12.89-8.87C814.08,39.42,821.35,38.08,826.96,48.3z"/>
				</g>
			</g>
		</g>
	</g>
	<g class="st3">
		<g>
			<g>
				<g>
					<g>
						<path class="st18" d="M402.78,45.85c-2.18-0.25-3.75-2.12-3.52-4.18c0.23-2.06,2.19-3.53,4.37-3.29
							c2.18,0.25,3.75,2.12,3.52,4.18C406.91,44.62,404.96,46.09,402.78,45.85z"/>
					</g>
					<path class="st18" d="M390.68,78.71c-2.18-0.25-3.75-2.12-3.52-4.18c0.23-2.06,2.19-3.54,4.37-3.29
						c2.18,0.25,3.75,2.12,3.52,4.18C394.81,77.48,392.85,78.96,390.68,78.71z"/>
					<path class="st18" d="M377.24,30.3c-2.18-0.25-3.75-2.12-3.52-4.18c0.23-2.06,2.19-3.54,4.37-3.29
						c2.18,0.25,3.75,2.12,3.52,4.18C381.38,29.07,379.42,30.54,377.24,30.3z"/>
					<g>
						<path class="st18" d="M368.72,68.59c-2.18-0.25-3.75-2.12-3.52-4.18c0.23-2.06,2.19-3.53,4.37-3.29
							c2.18,0.25,3.75,2.12,3.52,4.18C372.85,67.36,370.89,68.83,368.72,68.59z"/>
					</g>
					<path class="st18" d="M419.51,64.56c-2.18-0.25-3.75-2.12-3.52-4.18c0.23-2.06,2.19-3.53,4.37-3.29
						c2.18,0.25,3.75,2.12,3.52,4.18C423.64,63.34,421.69,64.81,419.51,64.56z"/>
					<g>
						<path class="st18" d="M419.54,74c-1.71-0.19-2.95-1.67-2.77-3.29c0.18-1.62,1.72-2.78,3.43-2.58
							c1.71,0.19,2.95,1.67,2.77,3.29C422.79,73.03,421.25,74.19,419.54,74z"/>
					</g>
					<g>
						<path class="st18" d="M416.99,87.5c-2.27-0.26-3.91-2.21-3.67-4.36c0.24-2.15,2.28-3.68,4.55-3.42
							c2.27,0.26,3.91,2.21,3.67,4.36C421.29,86.23,419.26,87.76,416.99,87.5z"/>
					</g>
				</g>
			</g>
			<g>
				<path class="st20" d="M417.68,70.19c-0.2-0.12-6.48-3.89-15.47-9.86c6.28,1.21,14.91,1.36,15.32,1.37c0,0,0,0,0.01,0
					c0.23,0,0.43-0.19,0.43-0.42c0-0.24-0.19-0.43-0.42-0.44c-0.11,0-11.22-0.19-17.34-1.85c-7.41-4.96-16.36-11.23-25.19-18.08
					c7.22,1.52,14.43,1.89,19.65,1.89c4.67,0,7.74-0.29,7.81-0.3c0.24-0.02,0.41-0.23,0.39-0.47c-0.02-0.24-0.24-0.41-0.47-0.39
					c-0.15,0.01-14.85,1.39-28.96-1.97c-6.61-5.19-13.09-10.68-18.74-16.17c6.34,3.35,13.05,3.97,17.06,3.97
					c2.22,0,3.62-0.19,3.66-0.19c0.23-0.03,0.4-0.25,0.37-0.49c-0.03-0.24-0.26-0.4-0.49-0.37c-0.13,0.02-12.92,1.72-23.2-5.51
					c-5-5.1-9.19-10.16-11.99-14.93c-0.12-0.21-0.38-0.27-0.59-0.15c-0.21,0.12-0.27,0.38-0.15,0.59
					c2.82,4.79,7.01,9.86,12.01,14.98c0.03,0.06,0.07,0.11,0.13,0.15c0.02,0.02,0.05,0.03,0.07,0.05c2.56,2.61,5.33,5.23,8.23,7.82
					c0,0,0,0.01,0,0.01c0.08,0.15,7.71,14.8,8.33,34.38c0.01,0.23,0.2,0.42,0.43,0.42c0,0,0.01,0,0.01,0
					c0.24-0.01,0.42-0.21,0.42-0.44c-0.49-15.75-5.49-28.34-7.54-32.9c3.65,3.2,7.48,6.35,11.36,9.4c0.06,0.1,0.15,0.18,0.26,0.21
					c3.99,3.14,8.03,6.16,11.96,9c0.42,1.28,5.97,18.37,5.77,24.56c-0.01,0.24,0.18,0.44,0.42,0.44c0,0,0.01,0,0.01,0
					c0.23,0,0.42-0.18,0.43-0.42c0.19-5.65-4.1-19.54-5.45-23.73c4.76,3.43,9.34,6.58,13.44,9.33c0.05,0.06,0.12,0.11,0.2,0.14
					c0,0,0,0,0,0c3.02,2.02,5.78,3.83,8.17,5.36c0.34,0.42,7.28,9.12,7.52,15.83c0.01,0.23,0.2,0.42,0.43,0.42c0,0,0.01,0,0.02,0
					c0.24-0.01,0.42-0.21,0.42-0.45c-0.18-5.25-4.1-11.41-6.29-14.46c4.33,2.75,7.02,4.37,7.15,4.45c0.07,0.04,0.15,0.06,0.22,0.06
					c0.15,0,0.29-0.08,0.37-0.21C417.95,70.57,417.88,70.31,417.68,70.19z"/>
			</g>
		</g>
	</g>
	<g class="st3">
		<path class="st21" d="M111.18,112.43c-3.82,0-6.93-1.27-9.34-3.8c-2.41-2.53-3.61-5.92-3.61-10.17c0-4.06,1.15-7.41,3.45-10.06
			s5.5-3.97,9.58-3.97c3.78,0,6.86,1.25,9.24,3.74c2.38,2.49,3.57,5.82,3.57,9.99c0,4.31-1.2,7.77-3.6,10.37
			C118.07,111.13,114.97,112.43,111.18,112.43z M111.14,106.27c1.41,0,2.42-0.61,3.03-1.84s0.93-3.47,0.93-6.74
			c0-4.72-1.27-7.08-3.8-7.08c-2.73,0-4.1,2.69-4.1,8.08C107.2,103.74,108.51,106.27,111.14,106.27z"/>
		<path class="st21" d="M147.07,112.02h-7.94V99.28c0-1.05-0.16-1.72-0.49-2.01s-0.73-0.44-1.22-0.44c-1.45,0-2.17,1.01-2.17,3.02
			v12.16h-7.94V91.78h7.36v2.87c1.09-2.19,3.03-3.28,5.83-3.28c1.47,0,2.72,0.28,3.73,0.85c1.01,0.56,1.74,1.29,2.18,2.19
			c0.44,0.9,0.66,2.45,0.66,4.67V112.02z"/>
		<path class="st21" d="M159.07,84.86v27.16h-7.82V84.86H159.07z"/>
		<path class="st21" d="M171.19,84v6.29h-7.94V84H171.19z M171.19,91.78v20.24h-7.94V91.78H171.19z"/>
		<path class="st21" d="M195.13,112.02h-7.94V99.28c0-1.05-0.16-1.72-0.49-2.01s-0.73-0.44-1.22-0.44c-1.45,0-2.17,1.01-2.17,3.02
			v12.16h-7.94V91.78h7.36v2.87c1.09-2.19,3.03-3.28,5.83-3.28c1.47,0,2.72,0.28,3.73,0.85c1.01,0.56,1.74,1.29,2.18,2.19
			s0.66,2.45,0.66,4.67V112.02z"/>
		<path class="st21" d="M212.68,104.75l7.4,0.5c-0.44,1.99-1.56,3.68-3.35,5.08c-1.8,1.4-4.23,2.1-7.29,2.1
			c-3.41,0-6.13-0.98-8.16-2.95c-2.03-1.97-3.04-4.41-3.04-7.33c0-3.02,1-5.58,3-7.66c2-2.08,4.68-3.12,8.02-3.12
			c3.24,0,5.85,0.98,7.85,2.94s2.99,4.64,2.99,8.02c0,0.28-0.01,0.66-0.02,1.15h-13.55c0.03,1.27,0.25,2.22,0.68,2.84
			c0.42,0.62,1.23,0.93,2.43,0.93C211.36,107.24,212.37,106.41,212.68,104.75z M212.14,99.5c-0.01-1.37-0.29-2.28-0.82-2.76
			c-0.54-0.47-1.2-0.71-1.99-0.71c-1.88,0-2.82,1.15-2.82,3.46H212.14z"/>
		<path class="st21" d="M230.86,104.16l7.74-1.39c0.65,2.19,2.32,3.28,5.01,3.28c2.1,0,3.14-0.56,3.14-1.67
			c0-0.58-0.24-1.04-0.73-1.36s-1.35-0.61-2.6-0.86c-4.76-0.91-7.82-2.11-9.17-3.58c-1.35-1.47-2.03-3.2-2.03-5.2
			c0-2.56,0.97-4.69,2.92-6.39c1.94-1.7,4.74-2.55,8.39-2.55c5.53,0,9.19,2.22,10.96,6.67l-6.9,2.09c-0.72-1.82-2.17-2.73-4.36-2.73
			c-1.82,0-2.73,0.56-2.73,1.69c0,0.5,0.21,0.9,0.62,1.17c0.41,0.28,1.21,0.54,2.39,0.79c3.25,0.69,5.56,1.3,6.93,1.82
			c1.37,0.53,2.51,1.43,3.42,2.71c0.91,1.28,1.37,2.79,1.37,4.53c0,2.75-1.11,4.98-3.34,6.68c-2.23,1.71-5.15,2.56-8.77,2.56
			C236.5,112.43,232.42,109.67,230.86,104.16z"/>
		<path class="st21" d="M278.02,112.02h-7.94V99.84c0-1.11-0.12-1.88-0.37-2.3c-0.24-0.42-0.72-0.63-1.42-0.63
			c-0.54,0-1.01,0.16-1.42,0.49c-0.4,0.32-0.64,0.66-0.7,1c-0.07,0.34-0.1,1.07-0.1,2.17v11.44h-7.94V84.86h7.94v9.31
			c1.43-1.87,3.3-2.81,5.61-2.81c1.17,0,2.19,0.2,3.07,0.61s1.56,0.93,2.04,1.56s0.8,1.25,0.97,1.85c0.17,0.6,0.25,1.75,0.25,3.46
			V112.02z"/>
		<path class="st21" d="M292.11,112.43c-3.36,0-6.02-1.04-8-3.13s-2.96-4.54-2.96-7.35c0-3.02,1.03-5.54,3.09-7.56
			c2.06-2.02,4.75-3.02,8.05-3.02c3.33,0,6.01,0.99,8.03,2.98s3.03,4.48,3.03,7.48c0,3.02-1.02,5.55-3.07,7.57
			C298.23,111.42,295.5,112.43,292.11,112.43z M292.23,107.62c1.23,0,1.99-0.64,2.26-1.92s0.41-2.62,0.41-4.01
			c0-1.9-0.19-3.26-0.58-4.1c-0.38-0.84-1.07-1.25-2.07-1.25c-0.92,0-1.59,0.43-2.01,1.29c-0.42,0.86-0.64,2.28-0.64,4.26
			c0,2.32,0.22,3.86,0.66,4.61C290.7,107.24,291.35,107.62,292.23,107.62z"/>
		<path class="st21" d="M314.37,118.4h-7.94V91.78h7.3v2.87c1.02-2.19,2.92-3.28,5.71-3.28c2.41,0,4.3,0.94,5.67,2.82
			c1.37,1.88,2.05,4.43,2.05,7.67c0,3.24-0.7,5.81-2.1,7.72c-1.4,1.91-3.25,2.87-5.54,2.87c-2.26,0-3.97-0.86-5.15-2.59V118.4z
			 M314.37,104.61c0,0.9,0.21,1.6,0.62,2.1s0.92,0.75,1.53,0.75c0.96,0,1.61-0.44,1.97-1.32c0.36-0.88,0.54-2.24,0.54-4.07
			c0-2.11-0.21-3.59-0.62-4.45s-1.03-1.28-1.85-1.28c-0.49,0-0.98,0.19-1.46,0.58c-0.48,0.38-0.73,1.01-0.73,1.89V104.61z"/>
		<path class="st21" d="M338.27,118.4h-7.94V91.78h7.3v2.87c1.02-2.19,2.92-3.28,5.71-3.28c2.41,0,4.3,0.94,5.67,2.82
			c1.37,1.88,2.05,4.43,2.05,7.67c0,3.24-0.7,5.81-2.1,7.72c-1.4,1.91-3.25,2.87-5.54,2.87c-2.26,0-3.97-0.86-5.15-2.59V118.4z
			 M338.27,104.61c0,0.9,0.21,1.6,0.62,2.1s0.92,0.75,1.53,0.75c0.96,0,1.61-0.44,1.97-1.32c0.36-0.88,0.54-2.24,0.54-4.07
			c0-2.11-0.21-3.59-0.62-4.45s-1.03-1.28-1.85-1.28c-0.49,0-0.98,0.19-1.46,0.58c-0.48,0.38-0.73,1.01-0.73,1.89V104.61z"/>
		<path class="st21" d="M362.17,84v6.29h-7.94V84H362.17z M362.17,91.78v20.24h-7.94V91.78H362.17z"/>
		<path class="st21" d="M386.11,112.02h-7.94V99.28c0-1.05-0.16-1.72-0.49-2.01c-0.32-0.29-0.73-0.44-1.22-0.44
			c-1.45,0-2.17,1.01-2.17,3.02v12.16h-7.94V91.78h7.36v2.87c1.09-2.19,3.03-3.28,5.83-3.28c1.47,0,2.72,0.28,3.73,0.85
			c1.01,0.56,1.74,1.29,2.18,2.19s0.66,2.45,0.66,4.67V112.02z"/>
		<path class="st21" d="M411.38,87.18l-0.2,5.43l-0.38-0.02c-0.72-0.04-1.23-0.06-1.53-0.06c-1.23,0-1.98,0.25-2.23,0.74
			c1.51,1.25,2.27,2.75,2.27,4.52c0,2.07-0.82,3.62-2.46,4.67c-1.64,1.04-3.86,1.56-6.68,1.56c-0.07,0-0.41-0.01-1.03-0.04
			c-0.58-0.03-0.89-0.04-0.92-0.04c-1.29,0-1.93,0.33-1.93,0.99c0,0.58,0.57,0.9,1.71,0.94l6.51,0.28c2.37,0.11,4.12,0.77,5.22,1.99
			s1.66,2.65,1.66,4.28c0,1.94-0.83,3.52-2.48,4.75c-1.65,1.23-4.86,1.84-9.64,1.84c-7.36,0-11.04-1.69-11.04-5.07
			c0-1.84,0.97-3.13,2.92-3.86c-1.26-0.89-1.89-1.94-1.89-3.16c0-1.99,1.29-3.49,3.88-4.5c-2.16-0.94-3.24-2.51-3.24-4.7
			c0-2,0.88-3.56,2.63-4.68c1.75-1.11,4.15-1.67,7.2-1.67c1.39,0,2.66,0.14,3.8,0.42c0.46-3.17,2.14-4.76,5.03-4.76
			C409.23,87.02,410.17,87.08,411.38,87.18z M397.73,111.75c-0.29-0.01-0.58-0.02-0.88-0.02c-1.37,0-2.05,0.42-2.05,1.27
			c0,0.78,0.52,1.29,1.56,1.52c1.04,0.23,2.43,0.34,4.17,0.34c1.64,0,2.7-0.14,3.17-0.42c0.47-0.28,0.71-0.66,0.71-1.15
			c0-0.34-0.11-0.63-0.32-0.86c-0.21-0.23-0.72-0.37-1.51-0.41L397.73,111.75z M399.76,100.26c1.54,0,2.31-0.82,2.31-2.45
			c0-1.67-0.79-2.51-2.37-2.51c-1.57,0-2.35,0.85-2.35,2.55C397.35,99.45,398.15,100.26,399.76,100.26z"/>
	</g>
	<g class="st3">
		<g>
			<path class="st18" d="M201.43,74.4v-9.71h1.37v9.71H201.43z M201.43,74.4v-1.3h6.43v1.3H201.43z"/>
			<path class="st18" d="M209.69,65.99v-1.3h5.91v1.3H209.69z M209.69,74.4v-1.3h5.91v1.3H209.69z M211.95,74.4v-9.71h1.37v9.71
				H211.95z"/>
			<path class="st18" d="M217.62,74.4v-9.71h1.31v9.71H217.62z M220.22,70.43l-1.11-4.02h-0.4v-1.72h0.97l1.11,4.17h0.05l0.14,1.57
				H220.22z M220.62,70.43l0.21-1.57h0.08l1.11-4.17h0.97v1.72h-0.4l-1.11,4.02H220.62z M222.76,74.4v-9.71h1.31v9.71H222.76z"/>
			<path class="st18" d="M226.1,65.99v-1.3H232v1.3H226.1z M226.1,74.4v-1.3H232v1.3H226.1z M228.36,74.4v-9.71h1.37v9.71H228.36z"
				/>
			<path class="st18" d="M233.7,65.99v-1.3h7.11v1.3H233.7z M236.57,74.4v-9.71h1.37v9.71H236.57z"/>
			<path class="st18" d="M242.45,74.4v-9.71h1.37v9.71H242.45z M242.45,65.99v-1.3h6.43v1.3H242.45z M242.45,70.19v-1.3h5.2v1.3
				H242.45z M242.45,74.4v-1.3h6.43v1.3H242.45z"/>
			<path class="st18" d="M250.52,74.4v-9.71h1.37v9.71H250.52z M251.79,74.4v-1.3h1.08c1,0,1.75-0.28,2.25-0.85s0.76-1.42,0.76-2.56
				c0-1.23-0.25-2.16-0.76-2.77s-1.25-0.92-2.25-0.92h-1.05l-0.16-1.3h1.22c2.96,0,4.44,1.66,4.44,4.99c0,3.14-1.48,4.72-4.44,4.72
				H251.79z"/>
			<path class="st18" d="M270.07,74.53c-2.39,0-3.58-1.64-3.58-4.92c0-3.37,1.19-5.06,3.58-5.06s3.58,1.69,3.58,5.06
				C273.65,72.89,272.46,74.53,270.07,74.53z M270.07,73.28c1.43,0,2.15-1.22,2.15-3.66c0-2.53-0.72-3.8-2.15-3.8
				s-2.15,1.27-2.15,3.8C267.92,72.05,268.64,73.28,270.07,73.28z"/>
			<path class="st18" d="M275.4,74.4v-9.71h1.37v9.71H275.4z M275.4,65.99v-1.3h6.43v1.3H275.4z M275.4,70.6v-1.3h5.2v1.3H275.4z"/>
			<path class="st18" d="M283.6,74.4v-9.71h1.37v9.71H283.6z M283.6,65.99v-1.3h6.43v1.3H283.6z M283.6,70.6v-1.3h5.2v1.3H283.6z"/>
			<path class="st18" d="M291.67,74.4v-9.71h1.37v9.71H291.67z M291.67,65.99v-1.3h6.43v1.3H291.67z M291.67,70.19v-1.3h5.2v1.3
				H291.67z M291.67,74.4v-1.3h6.43v1.3H291.67z"/>
			<path class="st18" d="M299.73,74.4v-9.71h1.37v9.71H299.73z M301.01,70.71v-1.3h2.06c0.54,0,0.96-0.14,1.27-0.43
				s0.45-0.69,0.45-1.21c0-0.57-0.15-1.01-0.45-1.32s-0.73-0.46-1.27-0.46h-2.04l-0.16-1.3h2.2c1.01,0,1.79,0.26,2.33,0.77
				s0.82,1.23,0.82,2.17c0,0.98-0.27,1.73-0.82,2.27s-1.33,0.81-2.33,0.81H301.01z M304.94,74.4l-2.17-4.57h1.5l2.31,4.57H304.94z"
				/>
			<path class="st18" d="M311.08,74.53c-0.28,0-0.52-0.1-0.71-0.3s-0.3-0.44-0.3-0.71c0-0.28,0.1-0.52,0.3-0.72s0.44-0.29,0.71-0.29
				c0.28,0,0.52,0.1,0.72,0.29s0.29,0.44,0.29,0.72c0,0.28-0.1,0.52-0.29,0.71S311.37,74.53,311.08,74.53z M310.41,71.28l-0.04-6.66
				h1.42l-0.07,6.66H310.41z"/>
		</g>
	</g>
	<g class="st3">
		<g>
			<path class="st18" d="M204.14,136.53c-1.45,0-2.54-0.42-3.26-1.25s-1.09-2.09-1.09-3.75c0-1.58,0.38-2.81,1.13-3.67
				s1.81-1.3,3.17-1.3c0.68,0,1.27,0.11,1.78,0.32s0.89,0.51,1.13,0.9l-1.02,1.01c-0.21-0.31-0.47-0.55-0.79-0.72
				c-0.32-0.17-0.66-0.25-1.02-0.25c-0.92,0-1.64,0.32-2.15,0.95s-0.77,1.53-0.77,2.7c0,1.27,0.26,2.23,0.77,2.86
				s1.27,0.95,2.28,0.95c0.43,0,0.81-0.04,1.15-0.13s0.6-0.16,0.81-0.22l0.53,1.19c-0.19,0.06-0.53,0.14-1.01,0.25
				S204.75,136.53,204.14,136.53z M203.51,132.84v-1.3h3.24v1.3H203.51z M205.49,136.12v-4.58h1.3v4.58H205.49z"/>
			<path class="st18" d="M208.64,136.4v-9.71H210v9.71H208.64z M208.64,127.99v-1.3h6.43v1.3H208.64z M208.64,132.19v-1.3h5.2v1.3
				H208.64z M208.64,136.4v-1.3h6.43v1.3H208.64z"/>
			<path class="st18" d="M216.29,127.99v-1.3h7.11v1.3H216.29z M219.16,136.4v-9.71h1.37v9.71H219.16z"/>
			<path class="st18" d="M236.23,136.53c-2.08,0-3.12-1.08-3.12-3.25v-6.59h1.37v6.59c0,0.65,0.14,1.13,0.43,1.46
				s0.73,0.49,1.35,0.49c1.19,0,1.78-0.65,1.78-1.96v-6.59h1.37v6.59c0,1.08-0.27,1.9-0.81,2.44
				C238.05,136.26,237.27,136.53,236.23,136.53z"/>
			<path class="st18" d="M241.45,136.4v-9.71h1.37v9.71H241.45z M242.65,133.39v-1.3h1.65c0.75,0,1.31-0.19,1.7-0.56
				s0.57-0.92,0.57-1.63c0-0.63-0.19-1.1-0.57-1.43c-0.38-0.32-0.95-0.49-1.7-0.49h-1.63v-1.3h1.63c1.22,0,2.14,0.27,2.77,0.81
				c0.63,0.54,0.94,1.34,0.94,2.4c0,1.14-0.31,2.01-0.94,2.6s-1.55,0.88-2.77,0.88H242.65z"/>
			<path class="st18" d="M257.31,127.99v-1.3h7.11v1.3H257.31z M260.18,136.4v-9.71h1.37v9.71H260.18z"/>
			<path class="st18" d="M269.07,136.53c-2.39,0-3.58-1.64-3.58-4.92c0-3.37,1.19-5.06,3.58-5.06s3.58,1.69,3.58,5.06
				C272.65,134.89,271.46,136.53,269.07,136.53z M269.07,135.28c1.43,0,2.15-1.22,2.15-3.66c0-2.53-0.72-3.8-2.15-3.8
				s-2.15,1.27-2.15,3.8C266.92,134.05,267.64,135.28,269.07,135.28z"/>
			<path class="st18" d="M281.88,134.22l1.37-6.99h1.41l-1.38,6.99H281.88z M281.88,134.22l0.96-1.27h4.03v1.27H281.88z
				 M286.73,136.4v-9.71h1.38v9.71H286.73z M287.98,134.22v-1.27h1.05v1.27H287.98z"/>
			<path class="st18" d="M293.68,136.53c-2.21,0-3.31-1.64-3.31-4.92c0-3.37,1.1-5.06,3.31-5.06s3.31,1.69,3.31,5.06
				C296.98,134.89,295.88,136.53,293.68,136.53z M293.68,135.28c1.23,0,1.85-1.22,1.85-3.66c0-2.53-0.62-3.8-1.85-3.8
				s-1.85,1.27-1.85,3.8C291.83,134.05,292.45,135.28,293.68,135.28z M293.68,132.64c-0.31,0-0.55-0.09-0.74-0.28
				s-0.28-0.44-0.28-0.74c0-0.31,0.09-0.56,0.28-0.74c0.19-0.19,0.44-0.28,0.74-0.28c0.31,0,0.56,0.09,0.75,0.28
				c0.19,0.19,0.28,0.43,0.28,0.74c0,0.31-0.09,0.55-0.28,0.74S293.99,132.64,293.68,132.64z"/>
			<path class="st18" d="M300.29,130.97c-0.65,0-1.17-0.2-1.56-0.6s-0.59-0.94-0.59-1.6c0-0.67,0.2-1.21,0.59-1.61
				s0.91-0.61,1.56-0.61c0.64,0,1.16,0.2,1.55,0.6s0.58,0.94,0.58,1.62c0,0.66-0.19,1.19-0.58,1.6S300.94,130.97,300.29,130.97z
				 M299.05,134.3l-0.63-0.93l6.36-4.54l0.63,0.89L299.05,134.3z M300.29,129.86c0.27,0,0.49-0.1,0.65-0.3
				c0.16-0.2,0.25-0.46,0.25-0.79c0-0.34-0.08-0.61-0.25-0.81s-0.38-0.3-0.65-0.3c-0.28,0-0.5,0.1-0.66,0.3s-0.25,0.47-0.25,0.81
				c0,0.32,0.08,0.59,0.25,0.79C299.79,129.75,300.02,129.86,300.29,129.86z M303.62,136.53c-0.65,0-1.17-0.2-1.56-0.6
				s-0.59-0.94-0.59-1.6c0-0.67,0.2-1.21,0.59-1.61s0.91-0.61,1.56-0.61c0.64,0,1.16,0.2,1.55,0.61s0.58,0.94,0.58,1.61
				c0,0.66-0.19,1.19-0.58,1.6S304.26,136.53,303.62,136.53z M303.62,135.42c0.27,0,0.49-0.1,0.65-0.3c0.16-0.2,0.25-0.46,0.25-0.79
				c0-0.33-0.08-0.6-0.25-0.8c-0.16-0.2-0.38-0.3-0.65-0.3c-0.28,0-0.5,0.1-0.66,0.3c-0.16,0.2-0.25,0.47-0.25,0.8
				c0,0.32,0.08,0.59,0.25,0.79C303.12,135.32,303.34,135.42,303.62,135.42z"/>
		</g>
	</g>
	<g class="st3">
		<g>
			<path class="st19" d="M663.99,102.89H532.73c-2.78,0-5.05-2.26-5.05-5.05V45.89c0-2.78,2.26-5.05,5.05-5.05h131.26
				c2.78,0,5.05,2.26,5.05,5.05v51.95C669.03,100.62,666.77,102.89,663.99,102.89z M532.73,42.86c-1.67,0-3.03,1.36-3.03,3.03v51.95
				c0,1.67,1.36,3.03,3.03,3.03h131.26c1.67,0,3.03-1.36,3.03-3.03V45.89c0-1.67-1.36-3.03-3.03-3.03H532.73z"/>
		</g>
		<path class="st21" d="M677.69,87.98c0,2.22-1.82,4.04-4.04,4.04H542.4c-2.22,0-4.04-1.82-4.04-4.04V36.04
			c0-2.22,1.82-4.04,4.04-4.04h131.26c2.22,0,4.04,1.82,4.04,4.04V87.98z"/>
		<g>
			<g>
				<g>
					<path class="st22" d="M580.47,76.21c0,1.49,1.22,2.71,2.71,2.71h49.09c1.49,0,2.7-1.22,2.7-2.71V53.86
						c0-1.49-1.22-2.71-2.7-2.71h-49.09c-1.49,0-2.71,1.22-2.71,2.71V76.21z"/>
				</g>
				<g>
					<g>
						<path class="st23" d="M592.08,70.85V59.05h4.24c1.52,0,2.67,0.28,3.46,0.83c0.79,0.56,1.19,1.36,1.19,2.42
							c0,0.61-0.14,1.13-0.42,1.56c-0.28,0.43-0.69,0.75-1.24,0.96c0.62,0.16,1.09,0.46,1.42,0.91c0.33,0.44,0.5,0.98,0.5,1.62
							c0,1.16-0.37,2.02-1.1,2.6c-0.73,0.58-1.82,0.88-3.25,0.89H592.08z M594.93,63.97h1.48c0.62,0,1.06-0.12,1.33-0.34
							c0.26-0.22,0.4-0.55,0.4-0.98c0-0.5-0.14-0.86-0.43-1.07c-0.29-0.22-0.75-0.33-1.39-0.33h-1.39V63.97z M594.93,65.83v2.83
							h1.86c0.51,0,0.91-0.12,1.18-0.35c0.27-0.23,0.41-0.57,0.41-0.99c0-0.98-0.49-1.48-1.47-1.48H594.93z"/>
						<path class="st23" d="M612.03,59.05v7.72c0,0.88-0.19,1.63-0.56,2.27c-0.37,0.64-0.91,1.13-1.6,1.46
							c-0.7,0.33-1.52,0.5-2.47,0.5c-1.44,0-2.57-0.37-3.39-1.12c-0.83-0.74-1.25-1.77-1.26-3.06v-7.78h2.86v7.83
							c0.03,1.29,0.63,1.94,1.8,1.94c0.59,0,1.03-0.16,1.34-0.49c0.3-0.32,0.45-0.85,0.45-1.58v-7.7H612.03z"/>
						<path class="st23" d="M618.13,64.17l2.17-5.12h3.07l-3.8,7.56v4.24h-2.88v-4.24l-3.79-7.56h3.05L618.13,64.17z"/>
					</g>
				</g>
			</g>
		</g>
		<path class="st24" d="M673.66,32H542.4c-2.22,0-4.04,1.82-4.04,4.04v8.01h139.33v-8.01C677.69,33.82,675.88,32,673.66,32z"/>
		<g>
			<path class="st5" d="M661.15,38.02c0-1.62-1.31-2.93-2.93-2.93c-1.62,0-2.93,1.31-2.93,2.93c0,1.62,1.31,2.93,2.93,2.93
				C659.84,40.95,661.15,39.64,661.15,38.02z"/>
		</g>
		<g>
			<path class="st5" d="M671.15,38.02c0-1.62-1.31-2.93-2.93-2.93c-1.62,0-2.93,1.31-2.93,2.93c0,1.62,1.31,2.93,2.93,2.93
				C669.84,40.95,671.15,39.64,671.15,38.02z"/>
		</g>
		<g>
			<path class="st5" d="M650.15,38.02c0-1.62-1.31-2.93-2.93-2.93c-1.62,0-2.93,1.31-2.93,2.93c0,1.62,1.31,2.93,2.93,2.93
				C648.84,40.95,650.15,39.64,650.15,38.02z"/>
		</g>
		<path class="st21" d="M595.08,87.7c-2.22,0-3,1.5-1.74,3.32l12.4,17.98c1.26,1.83,3.32,1.83,4.58,0l12.4-17.98
			c1.26-1.83,0.48-3.32-1.74-3.32H595.08z"/>
		<path class="st22" d="M587.4,94.09l3.04-21.68c0.13-0.91-0.52-1.56-1.43-1.43l-21.68,3.04c-0.91,0.13-1.13,0.77-0.48,1.42
			l6.54,6.54l-8.58,6.54c-0.55,0.42-0.6,1.17-0.11,1.66l6.53,6.54c0.49,0.49,1.23,0.44,1.65-0.11l6.54-8.58l6.54,6.54
			C586.63,95.22,587.27,95,587.4,94.09z"/>
	</g>
	<g class="st3">
		<path class="st25" d="M819.35,85.9c6.37-3.06,19.71,2.3,28.01,30.7c3.7,12.65,16.26,11.08,23.71,16.21
			c6.41,4.41,10.06,15.34,8.33,24.95c-0.52,2.89-1.47,5.81-1.01,8.71c1.08,6.86,8.05,7.07,12.37,10.76
			c4.98,4.25,6.28,14.17,3.92,21.58c-2.36,7.41-7.54,12.46-13,15.39c-6.1,3.27-13.15,4.24-19.13,0.54
			c-3.17-1.97-5.91-5.15-9.14-6.93c-5.48-3.02-11.64-1.66-17.54-2.04c-5.9-0.39-12.6-3.69-14.39-11.47
			c-1.1-4.77-0.01-9.97-0.49-14.93c-0.99-10.33-6.55-17.68-6.78-28.59c-0.19-8.97,2.2-17.11,4.4-25.46"/>
	</g>
	<g class="st3">
		<path class="st26" d="M808.03,90.71c-5.88,6.05-17.96,24.29-6.25,32.4c9.15,6.34,24.11-1.84,28.37-10.06
			c2.53-4.88,4.19-12.98,1.5-18.09C827.35,86.77,814.75,83.79,808.03,90.71z"/>
	</g>
	<path class="st27" d="M808.14,119.21l-3.23,13.03c2.58,3.32,17.77,4.43,20.41,0.06L825,115.07"/>
	<g class="st3">
		<path class="st25" d="M799.1,101.99c-2.25-8.85,0.83-18.6,14.49-16.69c4.79-1.15,11.03,1.17,16.12,3.55
			c7.97,3.72,8.95,10.63,6.83,18.59c-0.63,2.35-2.46,5.29-5.62,4.96c-8.75-3.94-15.56-14.16-17.1-18.43
			C806.77,96.08,799.1,101.99,799.1,101.99z"/>
	</g>
	<g class="st3">
		<path class="st26" d="M827.52,111.37c0.58-1.15,2.37-1.47,3.59-0.87c1.22,0.6,1.92,1.85,2.18,3.1c0.17,0.79,0.19,1.61-0.05,2.38
			c-0.43,1.39-1.67,2.46-3.02,3.22c-2.4,1.34-5.3,1.06-6.73-1.37"/>
	</g>
	<path class="st28" d="M809.42,104.74c0,0-5.35,3.57-5.3,5.1c0.06,1.53,3.84,2.35,3.84,2.35"/>
	<path class="st29" d="M800.48,112.95l9.58,4.5c0,0-2.76,5.4-7.89,2.93C798.51,118.61,800.48,112.95,800.48,112.95z"/>
	<g class="st3">
		<g>
			<path d="M820.67,110.03c0.89-2.78-4-5.46-5.69-2.99c-0.2,0.29,0.13,0.68,0.45,0.58c0.89-0.27,1.63-0.59,2.58-0.29
				c1.02,0.32,2.28,1.31,2.03,2.52C819.94,110.27,820.54,110.44,820.67,110.03L820.67,110.03z"/>
		</g>
	</g>
	<g class="st3">
		<g>
			<path d="M803.24,101.02c0.62-0.13,1.41-0.17,1.94,0.24c0.49,0.38,0.53,1.07,0.79,1.59c0.11,0.21,0.45,0.21,0.56,0
				c0.45-0.84,0.02-1.89-0.7-2.43c-0.83-0.62-1.88-0.51-2.8-0.14C802.58,100.46,802.74,101.13,803.24,101.02L803.24,101.02z"/>
		</g>
	</g>
	<path class="st28" d="M806.6,125.43c0,0,5.89,1.52,13.26-2.86"/>
	<g class="st3">
		<g>
			<path class="st26" d="M716.11,111.24c-2.52-3.36-14.14-18.41-15.06-17.71c-0.88,0.67,2.15,6.25,1.49,6.34
				c-0.92,0.12-4.1-3.6-5.68-5.84c-1.41-2-4.01-4.99-5.01-4.52c-1.9,0.89,5.96,11.75,5.96,11.75c-0.57,0.27-8.94-11.4-10.6-10.81
				c-2.41,0.85,7.44,12.78,7.18,13.49c0,0-8.67-10.11-10.45-9.48c-1.78,0.63,6.29,9.34,8.18,12.52c-1.93-1.97-7.97-9.47-9.26-9.02
				c-1.3,0.46,1.7,4.92,2.49,5.97c4.75,6.3,14.98,18.06,14.98,18.06"/>
		</g>
		<path class="st30" d="M702.95,101.3c0,0-0.97,6.82,1.46,11.22"/>
		<path class="st5" d="M813.6,131.21c-16.04,0-21.73,5.33-35.84,5.33c-21.01,0-47.73-11.5-66-34.82l-17.49,14.48
			c0,0,40.28,63.99,113.37,44.59"/>
		<line class="st31" x1="715.1" y1="105.87" x2="697.49" y2="120.73"/>
	</g>
	<g class="st3">
		<path class="st5" d="M828.46,135.62l-0.88-7.6l-26-0.98l-4.72,10.14c-24.14,40.45-38.36,81.64-47.75,188.23c0,0,12.44-1.65,33.8,0
			c15.16,1.17,34.97,5.26,50.13,3.5c21.78-2.52,40.42-9.93,40.42-9.93s-19.58-43.51-22.78-133.76
			C849.89,163.03,838.91,143.59,828.46,135.62z"/>
		<path class="st31" d="M806.25,127.03l-1.34,7.96c0,0-32.26,73.21-32.26,189.65"/>
		<path class="st32" d="M823.49,193.02c0,0-3.06,61.42,8.01,136.03"/>
		<path class="st31" d="M783.36,162.41c0,0,3.38-10.39,0-13.49"/>
	</g>
	<g class="st3">
		<g>
			<path class="st26" d="M725.57,201.63c-4.26-1.26-23.64-6.66-23.91-5.61c-0.26,1.01,5.9,3.73,5.44,4.16
				c-0.66,0.61-5.69-0.57-8.45-1.45c-2.46-0.79-6.55-1.71-7.03-0.79c-0.93,1.75,12.63,5.95,12.63,5.95
				c-0.28,0.53-14.78-4.03-15.72-2.65c-1.36,2,14.51,5.95,14.77,6.65c0,0-13.7-3.16-14.71-1.68c-1.01,1.48,11.29,3.87,14.92,5.33
				c-2.86-0.48-12.71-3.05-13.45-1.97c-0.73,1.08,4.66,2.93,5.98,3.32c8.02,2.33,24.07,5.93,24.07,5.93"/>
		</g>
		<path class="st5" d="M819.86,151.74c0,0-32.32,64.86-103.91,46.62l-4.93,20.67c0,0,78.56,26.82,123.25-26.01"/>
		<path class="st31" d="M762.16,225.83c24.5-0.53,52.96-11.03,72.12-32.82"/>
		<path class="st31" d="M819.86,151.74c0,0-15.27,30.65-48.09,43.89"/>
		<line class="st31" x1="721.02" y1="199.52" x2="716.04" y2="220.5"/>
	</g>
	<path class="st33" d="M341.67,248.91c0,0,20.79-3.86,28.53-17.58c7.73-13.72-4.14-24.19-13.25-20.42
		C347.85,214.67,338.01,235.45,341.67,248.91z"/>
	<path class="st33" d="M319.45,248.08c0,0-20.91,2.99-32-7.64c-11.09-10.63-2.56-24.45,7.15-23.78
		C304.31,217.34,319.32,234.04,319.45,248.08z"/>
	<path class="st1" d="M369.01,224.16c-0.1-0.17-0.3-0.22-0.46-0.12c-3.55,2.4-8.62,1.04-10.22,0.52c2.88-3.28,4.83-4.94,4.88-4.98
		c0.15-0.12,0.17-0.35,0.06-0.51c-0.11-0.16-0.32-0.19-0.47-0.07c-0.05,0.04-2.18,1.85-5.28,5.43c-0.03,0.03-0.06,0.06-0.08,0.1
		c-0.96,1.12-2.02,2.4-3.13,3.86c-0.75-1.06-2.97-4.65-2.06-9.17c0.04-0.2-0.07-0.39-0.26-0.43c-0.18-0.04-0.36,0.08-0.4,0.28
		c-1.01,5.07,1.55,8.93,2.28,9.91c-1.6,2.13-3.31,4.6-5.04,7.41c0,0,0,0,0,0c-0.01,0.01-0.01,0.02-0.01,0.02
		c-0.78,1.27-1.56,2.61-2.34,4.02c-0.66-0.86-2.24-3.28-1.98-6.62c0.02-0.2-0.12-0.38-0.3-0.39c-0.18-0.02-0.35,0.13-0.36,0.33
		c-0.3,3.92,1.66,6.6,2.29,7.35c-0.67,1.23-1.33,2.51-1.98,3.85c-0.09,0.18-0.02,0.4,0.14,0.49c0.07,0.04,0.14,0.05,0.21,0.04
		c0.1-0.02,0.19-0.08,0.25-0.19c1.44-2.96,2.94-5.67,4.43-8.12c0.81,0.65,3.21,2.17,7.3,1.5c0.95-0.16,1.99-0.43,3.12-0.86
		c0.17-0.07,0.27-0.27,0.21-0.46c-0.06-0.19-0.25-0.29-0.43-0.22c-3.51,1.33-6.06,1.06-7.58,0.59c-1.16-0.36-1.91-0.87-2.25-1.15
		c2.99-4.84,5.92-8.64,8.3-11.41c0.52,0.19,1.93,0.65,3.7,0.87c1.4,0.18,2.7,0.17,3.89-0.03c1.33-0.22,2.5-0.66,3.49-1.33
		C369.06,224.56,369.11,224.33,369.01,224.16z"/>
	<path class="st1" d="M316.93,246.08c-2.84-3.09-5.66-5.74-8.31-7.99c0.5-1.04,1.78-4.81-1.66-11.08c-0.09-0.17-0.3-0.23-0.46-0.13
		c-0.16,0.1-0.21,0.33-0.12,0.5c3.12,5.7,2.13,9.2,1.69,10.25c-1.81-1.51-3.55-2.84-5.16-3.99c-0.03-0.03-0.07-0.06-0.1-0.07
		c-2.03-1.44-3.86-2.61-5.42-3.53c0.28-1.2,1.11-5.92-2.1-10.38c-0.11-0.16-0.32-0.19-0.47-0.06c-0.15,0.12-0.17,0.35-0.06,0.51
		c2.85,3.96,2.29,8.25,2.02,9.57c-2.87-1.65-4.64-2.39-4.69-2.41c-0.17-0.07-0.37,0.03-0.43,0.21c-0.06,0.19,0.02,0.4,0.2,0.47
		c0.07,0.03,4.21,1.75,10.15,5.91c-1.51,0.83-6.24,3.14-11.42,2.63c-0.18-0.02-0.35,0.13-0.36,0.33c-0.02,0.2,0.12,0.38,0.3,0.4
		c1.6,0.16,3.15,0.07,4.58-0.17c3.83-0.63,6.78-2.27,7.55-2.73c3,2.15,6.41,4.9,9.98,8.34c-0.23,0.36-0.79,1.05-1.86,1.57
		c-1.39,0.68-3.95,1.19-8.25-0.24c-0.18-0.06-0.36,0.05-0.42,0.24c-0.05,0.19,0.05,0.4,0.22,0.46c2.93,0.98,5.12,1.11,6.74,0.84
		c2.45-0.4,3.61-1.7,4.06-2.38c1.1,1.08,2.2,2.21,3.31,3.42c0.08,0.08,0.18,0.12,0.29,0.1c0.07-0.01,0.13-0.05,0.19-0.1
		C317.06,246.46,317.06,246.23,316.93,246.08z"/>
	<path class="st34" d="M330.69,192.19c-5.08-2.96-10.81-2.02-14.87,2.44c-5.49,6.03-9.21,17.03-4.77,31.22
		c6.2,19.81,20,24.14,20,24.14s12.01-8.58,12.6-29.5C344.09,205.51,337.56,196.19,330.69,192.19z"/>
	<path class="st1" d="M336.03,205.01c-0.18-0.02-0.35,0.12-0.37,0.32c-0.91,8.84-8.17,15.64-10.01,17.23
		c-0.27-2.24-0.49-4.39-0.66-6.36c-0.83-9.57-0.81-17.19-0.81-17.27c0-0.2-0.15-0.37-0.33-0.37c-0.18,0-0.34,0.16-0.34,0.36
		c0,0.11-0.01,4.48,0.36,10.78c-1.28-0.05-5.97-0.62-8.76-5.89c-0.09-0.17-0.3-0.23-0.46-0.13c-0.16,0.1-0.21,0.32-0.12,0.5
		c2.99,5.64,8.07,6.2,9.38,6.25c0.43,7.03,1.31,16.25,3.13,24.63c-2.15-0.64-10.39-3.5-12.74-10.49c-0.06-0.19-0.26-0.29-0.43-0.22
		c-0.17,0.07-0.26,0.28-0.2,0.47c1.17,3.48,3.92,6.5,7.96,8.74c2.61,1.44,4.92,2.12,5.59,2.3c0.85,3.75,1.89,7.31,3.17,10.39
		c0.06,0.15,0.21,0.23,0.35,0.21c0.03,0,0.06-0.01,0.09-0.03c0.17-0.08,0.24-0.3,0.17-0.48c-2.68-6.46-4.29-15-5.25-22.58
		c1.17-0.97,9.57-8.26,10.57-17.99C336.35,205.21,336.22,205.03,336.03,205.01z"/>
	<g class="st3">
		<g>
			<g>
				<path class="st35" d="M104.26,222.12c0.86-4.57,4.95-8,9.22-8.24c4.27-0.24,8.45,2.41,10.82,6.29
					c-1.09-6.8-2.1-13.75-1.11-20.57c0.93-6.39,4.11-13.31,9.54-16.49c7.4-4.33,14.28,5.75,17.03,12.1
					c3.32,7.67,3.83,16.9,0.77,24.76c4.14-1.13,6.67-6.88,10.94-6.76c3.47,0.09,5.79,4.43,5.45,8.21
					c-0.34,3.78-2.52,7.01-4.62,10.04c4.35-2.79,10.44-1.79,13.85,2.27c3.41,4.07,3.78,10.78,0.85,15.26l-60.05,0.77
					c-2.57-3.82-5.15-9.25-7.72-13.07C106.33,232.39,103.28,227.36,104.26,222.12z"/>
			</g>
			<g>
				<path class="st23" d="M143.59,244.93c0.33-0.51,0.68-0.97,1.03-1.44c0.35-0.46,0.72-0.91,1.06-1.37
					c0.34-0.47,0.7-0.91,1.06-1.36c0.18-0.22,0.36-0.44,0.53-0.68l0.53-0.68c0.42-0.54,0.85-1.06,1.29-1.58
					c-0.32-0.3-0.56-0.7-0.74-1.11c-0.23-0.56-0.4-1.18-0.44-1.79c-0.12-1.24,0.17-2.44,0.49-3.57c0.07-0.29,0.18-0.56,0.28-0.84
					c0.1-0.27,0.18-0.56,0.3-0.82l0.34-0.8c0.11-0.27,0.22-0.53,0.36-0.79c0.27-0.51,0.51-1.03,0.8-1.52
					c0.29-0.49,0.58-0.98,0.88-1.47c0.01-0.02,0.04-0.03,0.06-0.02c0.02,0.01,0.03,0.04,0.02,0.06l0,0l-0.71,1.56
					c-0.24,0.52-0.43,1.06-0.64,1.58c-0.11,0.26-0.2,0.53-0.29,0.8l-0.27,0.81c-0.1,0.27-0.15,0.55-0.23,0.82
					c-0.07,0.28-0.15,0.54-0.2,0.82l-0.14,0.83c-0.06,0.28-0.05,0.56-0.08,0.83c-0.01,0.14-0.03,0.28-0.04,0.41l-0.01,0.41
					l-0.02,0.41l0.01,0.41c0.01,0.93,0.12,1.87,0.51,2.73c0.97-1.14,1.95-2.28,2.86-3.49c0.34-0.46,0.69-0.92,1.02-1.39l0.98-1.42
					c0.64-0.96,1.28-1.93,1.88-2.92c1.22-1.97,2.34-4.03,3.32-6.17l0,0c0.02-0.04,0.07-0.06,0.11-0.05
					c0.05,0.02,0.07,0.07,0.05,0.12c-0.73,2.28-1.7,4.45-2.73,6.59c-0.52,1.06-1.09,2.11-1.66,3.14l-0.9,1.53
					c-0.18,0.29-0.36,0.58-0.54,0.86c0.11,0.02,0.21,0.04,0.31,0.05c0.16,0.01,0.3,0.04,0.45,0.03c0.15,0.01,0.3,0,0.44-0.01
					c0.57-0.05,1.16-0.09,1.74-0.37c0.57-0.25,1.08-0.68,1.59-1.12c0.23-0.24,0.48-0.48,0.71-0.73c0.22-0.27,0.44-0.53,0.66-0.8l0,0
					c0.01-0.02,0.04-0.02,0.05-0.01c0.02,0.01,0.03,0.04,0.01,0.07c-0.17,0.31-0.35,0.62-0.53,0.93c-0.19,0.3-0.41,0.59-0.61,0.88
					c-0.11,0.14-0.24,0.27-0.35,0.4c-0.12,0.13-0.23,0.28-0.37,0.39l-0.41,0.35c-0.13,0.12-0.3,0.21-0.45,0.31l-0.23,0.15
					c-0.08,0.04-0.16,0.08-0.25,0.12c-0.17,0.08-0.33,0.18-0.51,0.23c-0.35,0.13-0.73,0.18-1.1,0.14c-0.53-0.06-1.04-0.27-1.45-0.61
					c-0.05,0.07-0.09,0.15-0.14,0.22c-0.31,0.5-0.64,0.99-0.97,1.48c-0.33,0.49-0.64,1-0.99,1.47c-0.35,0.48-0.7,0.95-1.06,1.41
					c-0.36,0.47-0.77,0.88-1.16,1.31c-0.41,0.42-0.8,0.85-1.23,1.23c-0.43,0.39-0.86,0.77-1.31,1.14c-0.43,0.38-0.91,0.71-1.37,1.05
					c-0.48,0.32-0.95,0.65-1.45,0.94c-0.03,0.02-0.06,0.02-0.09-0.01C143.57,245.04,143.56,244.98,143.59,244.93L143.59,244.93z"/>
			</g>
			<path class="st35" d="M151.65,247.06c0.77-0.53,1.56-0.95,2.36-1.34c0.79-0.42,1.59-0.78,2.39-1.13c0.4-0.18,0.8-0.35,1.21-0.5
				l0.82-0.29c-0.01-0.02-0.02-0.05-0.02-0.07c-0.03-0.1-0.07-0.2-0.09-0.3c-0.03-0.21-0.08-0.42-0.08-0.63
				c-0.04-0.86,0.29-1.63,0.63-2.32c0.08-0.18,0.18-0.34,0.27-0.51c0.1-0.16,0.18-0.34,0.29-0.49c0.22-0.3,0.42-0.63,0.66-0.91
				c0.24-0.28,0.46-0.57,0.72-0.83c0.25-0.26,0.51-0.52,0.76-0.78c0.02-0.01,0.04-0.02,0.06,0c0.02,0.02,0.02,0.05,0.01,0.07l0,0
				c-0.21,0.3-0.41,0.61-0.62,0.9c-0.21,0.3-0.38,0.62-0.57,0.93c-0.2,0.3-0.34,0.64-0.51,0.95c-0.09,0.16-0.15,0.33-0.22,0.49
				c-0.07,0.17-0.15,0.32-0.2,0.49l-0.15,0.51c-0.05,0.17-0.07,0.34-0.1,0.51c-0.04,0.17-0.05,0.34-0.08,0.5
				c-0.03,0.17-0.05,0.33-0.06,0.5c-0.03,0.25-0.04,0.5-0.03,0.75l0.99-0.33c0.41-0.14,0.82-0.31,1.22-0.46
				c0.41-0.16,0.81-0.32,1.21-0.5c0.4-0.18,0.81-0.34,1.2-0.53l1.2-0.55l1.18-0.59l1.17-0.62c0.38-0.22,0.77-0.43,1.15-0.67
				c0.38-0.23,0.75-0.47,1.12-0.72c0.37-0.25,0.74-0.5,1.08-0.79l0,0c0.03-0.03,0.08-0.03,0.11,0.01c0.03,0.04,0.03,0.1,0,0.13
				c-0.63,0.69-1.32,1.29-2.03,1.86c-0.35,0.29-0.72,0.56-1.08,0.84l-1.11,0.79l-1.14,0.74l-1.16,0.71
				c-0.24,0.14-0.49,0.28-0.74,0.42c0.51,0.26,0.98,0.53,1.46,0.79c0.61,0.32,1.18,0.74,1.82,1.01c0.63,0.28,1.3,0.48,1.98,0.59
				c0.68,0.14,1.38,0.11,2.09,0.08l0,0c0.02,0,0.04,0.01,0.04,0.04c0.01,0.03-0.01,0.05-0.03,0.06c-0.69,0.19-1.41,0.32-2.14,0.3
				c-0.18,0-0.37,0-0.55-0.02c-0.18-0.02-0.37-0.03-0.55-0.06c-0.36-0.07-0.72-0.14-1.08-0.26c-0.71-0.21-1.44-0.44-2.04-0.92
				c-0.15-0.12-0.3-0.24-0.44-0.37c-0.14-0.14-0.28-0.26-0.4-0.41c-0.18-0.2-0.34-0.41-0.49-0.65c-0.04,0.02-0.08,0.05-0.12,0.07
				c-0.39,0.22-0.79,0.43-1.19,0.63l-1.2,0.63l-1.2,0.61c-0.8,0.41-1.64,0.71-2.49,0.98c-0.85,0.25-1.72,0.45-2.59,0.61
				c-0.88,0.13-1.77,0.24-2.67,0.24c-0.03,0-0.06-0.02-0.08-0.05C151.59,247.16,151.6,247.1,151.65,247.06L151.65,247.06z"/>
			<g>
				<path class="st23" d="M126.57,203c0.02,0,0.05,0.02,0.05,0.04l0,0c0.17,1.88,0.55,3.73,1.26,5.43c0.68,1.71,1.65,3.27,2.8,4.63
					c0.58,0.68,1.2,1.31,1.87,1.88c0.66,0.58,1.34,1.13,2.04,1.67c1.16,0.89,2.38,1.7,3.65,2.46c0,0,0,0,0,0
					c0.13-4.36,0.09-8.73-0.06-13.1c-0.13-4.37-0.38-8.74-0.75-13.11c0-0.05,0.03-0.1,0.07-0.1c0.05-0.01,0.09,0.03,0.1,0.08
					c0.33,2.17,0.59,4.34,0.83,6.52c0.24,2.18,0.44,4.36,0.62,6.55c0.05,0.74,0.1,1.49,0.15,2.23c0.87-0.59,1.7-1.19,2.48-1.86
					c0.44-0.38,0.87-0.76,1.3-1.16c0.42-0.4,0.82-0.83,1.17-1.31c0.35-0.48,0.66-0.99,0.93-1.53c0.26-0.54,0.48-1.11,0.65-1.7
					c0.35-1.18,0.48-2.44,0.46-3.7c0-0.02,0.02-0.05,0.04-0.05c0.02,0,0.05,0.01,0.05,0.04c0.15,1.26,0.12,2.57-0.13,3.84
					c-0.13,0.63-0.33,1.25-0.56,1.85c-0.25,0.6-0.54,1.17-0.88,1.71c-0.68,1.08-1.51,2.08-2.52,2.79c-0.51,0.35-1.04,0.66-1.59,0.9
					c-0.45,0.19-0.9,0.35-1.38,0.45c0.23,3.55,0.38,7.11,0.41,10.68c0.04,4.4,0.07,8.83-0.51,13.22c-0.07,0.55-0.15,1.1-0.23,1.64
					c-0.09,0.55-0.15,1.09-0.26,1.64l-0.31,1.63c-0.11,0.54-0.24,1.08-0.36,1.62c-0.51,2.14-1.14,4.26-1.98,6.27
					c-0.02,0.04-0.06,0.06-0.1,0.05c-0.05-0.01-0.08-0.06-0.07-0.11c0.36-2.17,0.68-4.32,0.94-6.47l0.19-1.62l0.16-1.62
					c0.06-0.54,0.1-1.08,0.15-1.62c0.05-0.54,0.1-1.08,0.13-1.62c0.18-2.16,0.33-4.33,0.5-6.5c0.17-2.05,0.27-4.11,0.34-6.18
					c-0.6-0.18-1.19-0.41-1.77-0.68c-0.81-0.37-1.59-0.82-2.35-1.33c-1.51-1.01-2.82-2.36-3.95-3.84c-1.14-1.48-2.06-3.16-2.68-4.95
					c-0.08-0.22-0.15-0.45-0.22-0.68c-0.06-0.23-0.14-0.46-0.19-0.69c-0.1-0.47-0.22-0.93-0.29-1.4c-0.17-0.94-0.22-1.89-0.25-2.84
					C126.53,203.02,126.55,203,126.57,203z"/>
			</g>
			<g>
				<path class="st23" d="M108.76,228.37c0.02-0.02,0.05-0.01,0.06,0.01l0,0c0.25,0.33,0.49,0.66,0.72,1
					c0.25,0.32,0.52,0.62,0.78,0.93c0.28,0.29,0.55,0.57,0.84,0.84c0.3,0.24,0.59,0.52,0.92,0.71c0.64,0.42,1.34,0.64,2.01,0.83
					c0.51,0.13,1.03,0.19,1.59,0.17c-0.22-0.58-0.43-1.16-0.63-1.75c-0.38-1.14-0.73-2.29-1.04-3.44c-0.31-1.16-0.58-2.33-0.83-3.5
					c-0.24-1.17-0.46-2.35-0.61-3.55c-0.01-0.05,0.02-0.09,0.06-0.11c0.05-0.01,0.09,0.02,0.11,0.07l0,0
					c0.58,2.3,1.28,4.57,2.09,6.77c0.4,1.11,0.83,2.2,1.29,3.27c0.45,1.07,0.93,2.13,1.45,3.17c0.95,1.9,2.11,3.62,3.2,5.37
					c0.56-0.66,1.01-1.4,1.37-2.18c0.51-1.12,0.92-2.33,1.08-3.62l0.06-0.48l0.03-0.24l0.01-0.24l0.03-0.98l0.01-0.25l-0.01-0.25
					l-0.03-0.49c-0.02-0.33-0.04-0.66-0.06-0.99c-0.09-0.65-0.17-1.31-0.28-1.96l-0.41-1.95l0,0c0-0.02,0.01-0.05,0.03-0.06
					c0.02-0.01,0.05,0.01,0.06,0.03l0.59,1.91c0.17,0.65,0.3,1.31,0.45,1.96c0.05,0.33,0.09,0.67,0.13,1.01l0.06,0.5l0.03,0.25
					l0.01,0.26l0.04,1.02l0.01,0.26l-0.02,0.26l-0.03,0.51l-0.03,0.52c-0.01,0.17-0.05,0.34-0.07,0.51l-0.08,0.51
					c-0.03,0.17-0.05,0.35-0.1,0.51c-0.09,0.33-0.17,0.68-0.3,1c-0.14,0.32-0.27,0.64-0.44,0.94c-0.35,0.59-0.75,1.16-1.25,1.61
					c-0.2,0.19-0.41,0.36-0.64,0.51c0.02,0.03,0.04,0.06,0.06,0.09c0.61,0.95,1.24,1.88,1.9,2.81c0.68,0.91,1.38,1.79,2.12,2.71l0,0
					c0.02,0.03,0.03,0.07,0.02,0.1c-0.02,0.05-0.07,0.07-0.12,0.05c-1.04-0.48-2-1.15-2.89-1.92c-0.89-0.77-1.69-1.66-2.42-2.6
					c-0.73-0.95-1.35-1.98-1.9-3.05c-0.53-1.08-1.01-2.19-1.48-3.29c-0.17-0.4-0.33-0.81-0.49-1.21c-0.19,0.11-0.4,0.2-0.62,0.26
					c-0.41,0.13-0.84,0.14-1.27,0.11c-0.21-0.03-0.42-0.08-0.63-0.14c-0.2-0.07-0.4-0.17-0.59-0.26c-0.37-0.23-0.73-0.45-1.04-0.74
					c-0.34-0.25-0.62-0.57-0.92-0.87c-0.27-0.32-0.53-0.66-0.78-0.99c-0.22-0.36-0.46-0.71-0.67-1.07c-0.2-0.37-0.39-0.75-0.58-1.12
					C108.74,228.41,108.74,228.38,108.76,228.37z"/>
			</g>
		</g>
	</g>
	<g class="st3">
		<g>
			<path class="st18" d="M410.43,135.24c0,0-0.56,17.89-26.62,11.53C396.43,125.39,410.43,135.24,410.43,135.24z"/>
			<path class="st18" d="M387.15,145.69l-0.18-0.56c0.17-0.05,16.6-5.5,26.73-11.76l0.31,0.5
				C403.81,140.17,387.31,145.64,387.15,145.69z"/>
			<polygon class="st18" points="392.02,146.7 391.46,146.55 392.21,143.64 389.29,141.8 389.6,141.3 392.89,143.37 			"/>
			<polygon class="st18" points="396.36,146.79 395.8,146.64 397.24,141.48 392.44,138.95 392.71,138.43 397.93,141.18 			"/>
			<polygon class="st18" points="401.58,145.42 401,145.31 402.08,139.54 396.21,136.73 396.46,136.2 402.73,139.21 			"/>
			<polygon class="st18" points="406,142.39 405.43,142.24 406.77,137.24 401,134.84 401.22,134.3 407.47,136.9 			"/>
		</g>
	</g>
	<g class="st3">
		<path class="st19" d="M443.55,120.51c0,0-15.96,4.43-17.52-20.34C448.4,105.43,443.55,120.51,443.55,120.51z"/>
		<path class="st19" d="M427.9,102.81l0.44-0.31c0.09,0.13,9.43,13.15,17.75,20.38l-0.35,0.41
			C437.37,116.02,428,102.95,427.9,102.81z"/>
		<polygon class="st19" points="428.36,107.4 428.33,106.86 431.12,106.72 431.94,103.63 432.46,103.77 431.54,107.24 		"/>
		<polygon class="st19" points="429.47,111.26 429.45,110.72 434.41,110.57 435.32,105.63 435.85,105.73 434.86,111.1 		"/>
		<polygon class="st19" points="432.12,115.49 432.06,114.95 437.45,114.31 438.32,108.36 438.86,108.43 437.93,114.8 		"/>
		<polygon class="st19" points="436.01,118.56 435.99,118.02 440.78,117.82 441.3,112.06 441.84,112.11 441.27,118.35 		"/>
	</g>
	<g class="st3">
		<g>
			<path class="st18" d="M142.41,50.41c0,0-13.59,9.52-23.34-13.36C141.95,34.55,142.41,50.41,142.41,50.41z"/>
			<path class="st18" d="M121.79,38.83l0.17-0.25c0.13,0.09,13.32,9.28,23.6,13.33l-0.11,0.28
				C135.14,48.13,121.92,38.92,121.79,38.83z"/>
			<polygon class="st18" points="125.93,38.34 126.23,38.32 126.51,41.82 123.64,42.99 123.53,42.71 126.19,41.62 			"/>
			<polygon class="st18" points="129.79,39.09 130.08,39.04 130.92,44.35 125.98,46.26 125.87,45.98 130.59,44.16 			"/>
			<polygon class="st18" points="133.53,40.65 133.83,40.6 135.06,46.83 129.89,49.38 129.76,49.11 134.72,46.66 			"/>
			<polygon class="st18" points="137.59,43.16 137.88,43.08 139.4,49.06 134.6,50.98 134.48,50.7 139.04,48.88 			"/>
		</g>
	</g>
	<g class="st3">
		<path class="st17" d="M150.62,152.7c0,0,0.31-3.86,4.19-3.37c4.32,0.54,3.85,7.61,1.91,13.97c-6.76-3.24-10.73-1.99-11.42-6.15
			C144.61,152.99,148.17,151.43,150.62,152.7z"/>
		<path class="st17" d="M144.67,149.21c0.01,0,0.03,0,0.04,0c7.83,1.04,11.71,12.73,11.74,12.85c0.03,0.09-0.02,0.19-0.11,0.22
			c-0.09,0.03-0.19-0.02-0.22-0.11c-0.04-0.12-3.85-11.6-11.46-12.61c-0.09-0.01-0.16-0.1-0.15-0.19
			C144.53,149.28,144.59,149.22,144.67,149.21z"/>
		<path class="st17" d="M154.62,158.1c0.03,0,0.06,0,0.09,0.01l2.39,0.97c0.09,0.04,0.13,0.14,0.1,0.22
			c-0.04,0.09-0.14,0.13-0.23,0.1l-2.21-0.9l-0.79,2.76c-0.03,0.09-0.12,0.15-0.21,0.12c-0.09-0.03-0.15-0.12-0.12-0.21l0.84-2.94
			c0.01-0.05,0.05-0.09,0.09-0.11C154.58,158.11,154.6,158.1,154.62,158.1z"/>
		<path class="st17" d="M153.25,155.74c0.02,0,0.05,0,0.07,0.01l3.76,1.16c0.09,0.03,0.14,0.12,0.11,0.22
			c-0.03,0.09-0.13,0.14-0.22,0.11l-3.6-1.12l-1.59,3.99c-0.04,0.09-0.14,0.13-0.22,0.1c-0.09-0.04-0.13-0.14-0.1-0.22l1.64-4.14
			C153.13,155.79,153.18,155.75,153.25,155.74z"/>
		<path class="st17" d="M151.74,153.77c0.01,0,0.02,0,0.03,0l5.14,0.17c0.1,0,0.17,0.08,0.17,0.18c0,0.1-0.08,0.17-0.18,0.17
			l-5.03-0.16l-2.25,4.73c-0.04,0.09-0.14,0.12-0.23,0.08c-0.09-0.04-0.12-0.14-0.08-0.23l2.3-4.83
			C151.63,153.81,151.68,153.78,151.74,153.77z"/>
		<path class="st17" d="M156.13,151.19c0.08-0.01,0.16,0.04,0.19,0.13c0.02,0.09-0.03,0.19-0.12,0.21l-5.29,1.44l-3.47,4.97
			c-0.05,0.08-0.16,0.1-0.24,0.04c-0.08-0.05-0.1-0.16-0.04-0.24l3.5-5.02c0.02-0.03,0.06-0.06,0.1-0.07l5.35-1.46
			C156.12,151.2,156.13,151.2,156.13,151.19z"/>
	</g>
	<g class="st3">
		<g>
			<path class="st19" d="M93.95,98.47c-1.8,12-11.12,9.69-11.12,9.69S84.16,97.61,93.95,98.47z"/>
			<path class="st19" d="M93.95,98.47c-6.22,2.71-11.12,9.69-11.12,9.69S84.16,97.61,93.95,98.47z"/>
		</g>
	</g>
	<path class="st36" d="M787.52,204.79c0.79,0,1.7-0.27,1.7-1.07v-1.01c0-0.8-0.9-1.43-1.7-1.43h-41.93c-0.8,0-1.08,0.63-1.08,1.43
		v1.01c0,0.79,0.29,1.07,1.08,1.07H787.52z"/>
	<path class="st36" d="M748.41,201.11c0.52,2.13-0.85,3.68-3.04,3.68H666.8c-2.18,0-4.4-1.55-4.91-3.68l-13.57-55.81
		c-0.51-2.12,0.85-3.64,3.04-3.64h78.57c2.19,0,4.4,1.51,4.91,3.64L748.41,201.11z"/>
	
		<linearGradient id="SVGID_3_" gradientUnits="userSpaceOnUse" x1="4450.9272" y1="197.204" x2="4450.9272" y2="99.846" gradientTransform="matrix(-1 0 0 1 5188.2637 0)">
		<stop  offset="0" style="stop-color:#FFFFFF"/>
		<stop  offset="1" style="stop-color:#A0A0A0"/>
	</linearGradient>
	<path class="st37" d="M748.41,201.11l-13.57-55.81c-0.51-2.12-2.73-3.64-4.91-3.64h-3.78c2.19,0,4.4,1.61,4.91,3.73l13.57,55.77
		c0.52,2.13-0.85,3.61-3.04,3.61h3.78C747.56,204.79,748.93,203.24,748.41,201.11z"/>
	<g class="st3">
		<path class="st17" d="M693.84,186.38c-1.31-5.92,1.66-10.72,6.64-10.72c4.98,0,10.09,4.8,11.4,10.72
			c1.31,5.92-1.66,10.71-6.64,10.71C700.26,197.09,695.15,192.29,693.84,186.38z"/>
		<path class="st17" d="M707.49,186.38c-1.11-5.02-4.95-9.21-9.13-10.38c0.66-0.21,1.36-0.33,2.12-0.33c4.98,0,10.09,4.8,11.4,10.72
			c1.31,5.92-1.66,10.71-6.64,10.71c-0.76,0-1.52-0.12-2.27-0.33C706.63,195.59,708.6,191.39,707.49,186.38z"/>
	</g>
</g>
<rect x="0" y="232" width="900" height="18"/>
<g>
	<path class="st0" d="M382.33,236.28h1.57c1.24,0,2.26,0.33,3.06,0.98c0.81,0.65,1.21,1.58,1.21,2.79c0,1.25-0.4,2.2-1.2,2.86
		c-0.8,0.66-1.83,0.99-3.1,0.99h-1.55V236.28z M383.28,243.02h0.33c0.49,0,0.96-0.05,1.4-0.15c0.44-0.1,0.82-0.26,1.15-0.5
		c0.33-0.23,0.59-0.53,0.78-0.91c0.2-0.38,0.29-0.84,0.29-1.39c0-0.54-0.1-1.01-0.29-1.4c-0.19-0.39-0.46-0.69-0.8-0.91
		c-0.34-0.22-0.72-0.38-1.14-0.48c-0.41-0.1-0.87-0.15-1.39-0.15h-0.33V243.02z"/>
	<path class="st0" d="M389.57,241.68c0.01,0.42,0.15,0.79,0.4,1.1c0.26,0.31,0.6,0.46,1.02,0.46c0.33,0,0.6-0.07,0.82-0.23
		c0.21-0.15,0.41-0.38,0.6-0.69l0.77,0.44c-0.22,0.4-0.53,0.72-0.91,0.95c-0.39,0.23-0.81,0.35-1.28,0.35
		c-0.7,0-1.27-0.24-1.69-0.71c-0.42-0.48-0.63-1.07-0.63-1.78c0-0.75,0.2-1.36,0.6-1.84c0.39-0.47,0.96-0.71,1.71-0.71
		c0.73,0,1.28,0.24,1.65,0.71c0.38,0.47,0.57,1.07,0.57,1.81v0.14H389.57z M392.27,240.99c-0.05-0.36-0.19-0.65-0.42-0.86
		c-0.23-0.21-0.52-0.32-0.89-0.32c-0.18,0-0.34,0.03-0.49,0.09c-0.15,0.05-0.29,0.14-0.41,0.24c-0.11,0.11-0.21,0.24-0.29,0.38
		c-0.08,0.14-0.13,0.3-0.16,0.47H392.27z"/>
	<path class="st0" d="M395.85,240.25c-0.14-0.28-0.34-0.42-0.6-0.42c-0.13,0-0.24,0.04-0.34,0.13c-0.1,0.09-0.15,0.2-0.15,0.33
		c0,0.12,0.04,0.22,0.12,0.31c0.08,0.09,0.18,0.16,0.32,0.24c0.09,0.04,0.16,0.07,0.2,0.09c0.05,0.03,0.12,0.06,0.23,0.11
		c0.05,0.03,0.1,0.05,0.14,0.06c0.04,0.01,0.07,0.02,0.09,0.04c0.34,0.15,0.6,0.33,0.8,0.53c0.2,0.2,0.29,0.47,0.29,0.81
		c0,0.45-0.16,0.82-0.48,1.12c-0.32,0.3-0.7,0.45-1.14,0.45c-0.18,0-0.36-0.03-0.52-0.08c-0.17-0.05-0.33-0.12-0.47-0.21
		c-0.15-0.09-0.27-0.2-0.39-0.33c-0.11-0.13-0.2-0.28-0.25-0.44l0.78-0.35c0.22,0.4,0.51,0.6,0.86,0.6c0.14,0,0.27-0.04,0.4-0.11
		c0.12-0.08,0.21-0.18,0.27-0.3c0.06-0.12,0.07-0.24,0.03-0.38c-0.03-0.14-0.14-0.27-0.31-0.39l-0.89-0.48
		c-0.16-0.08-0.29-0.16-0.4-0.24c-0.11-0.08-0.21-0.17-0.28-0.26c-0.07-0.09-0.13-0.19-0.17-0.3c-0.04-0.11-0.06-0.24-0.06-0.39
		c0-0.38,0.13-0.7,0.41-0.97c0.27-0.27,0.6-0.4,0.99-0.4c0.59,0,1.02,0.28,1.29,0.83L395.85,240.25z"/>
	<path class="st0" d="M399.12,237c0,0.17-0.06,0.31-0.18,0.44c-0.12,0.12-0.27,0.17-0.44,0.17c-0.18,0-0.32-0.06-0.44-0.17
		c-0.12-0.12-0.18-0.27-0.18-0.44c0-0.18,0.06-0.32,0.18-0.45c0.12-0.13,0.27-0.18,0.44-0.18c0.17,0,0.32,0.06,0.44,0.18
		C399.06,236.68,399.12,236.83,399.12,237z M398.94,243.89h-0.91v-4.73h0.91V243.89z"/>
	<path class="st0" d="M404.82,243.8c0,0.89-0.17,1.57-0.51,2.07c-0.33,0.49-0.94,0.73-1.8,0.73c-0.67,0-1.21-0.19-1.64-0.58
		c-0.42-0.38-0.63-0.9-0.65-1.56h0.91c0,0.42,0.13,0.75,0.39,0.98c0.26,0.23,0.6,0.35,1.03,0.35c0.52,0,0.87-0.15,1.06-0.46
		c0.19-0.3,0.29-0.73,0.29-1.28v-0.9h-0.02c-0.19,0.28-0.42,0.51-0.7,0.66c-0.28,0.16-0.58,0.24-0.9,0.24
		c-0.7,0-1.25-0.25-1.66-0.74c-0.4-0.49-0.61-1.1-0.61-1.82c0-0.68,0.21-1.26,0.62-1.74c0.41-0.49,0.95-0.74,1.61-0.74
		c0.7,0,1.24,0.32,1.65,0.95h0.02v-0.81h0.91V243.8z M402.43,243.24c0.48,0,0.85-0.16,1.12-0.5c0.28-0.33,0.41-0.74,0.41-1.22
		c0-0.47-0.14-0.87-0.41-1.2c-0.27-0.33-0.64-0.49-1.12-0.49c-0.45,0-0.81,0.16-1.09,0.5c-0.27,0.33-0.4,0.72-0.4,1.19
		c0,0.48,0.14,0.89,0.4,1.21C401.61,243.08,401.98,243.24,402.43,243.24z"/>
	<path class="st0" d="M406.92,239.8h0.02c0.14-0.25,0.33-0.44,0.59-0.57c0.25-0.14,0.54-0.2,0.84-0.2c0.31,0,0.57,0.05,0.79,0.14
		c0.22,0.09,0.39,0.23,0.52,0.4c0.13,0.18,0.22,0.39,0.28,0.64c0.06,0.25,0.09,0.54,0.09,0.87v2.82h-0.91v-2.71
		c0-0.47-0.07-0.8-0.2-1.02c-0.13-0.22-0.41-0.33-0.84-0.33c-0.16,0-0.29,0.01-0.39,0.04c-0.11,0.03-0.2,0.08-0.28,0.13
		c-0.08,0.06-0.15,0.13-0.2,0.2c-0.05,0.07-0.1,0.16-0.15,0.25c-0.02,0.04-0.04,0.11-0.06,0.18c-0.02,0.07-0.03,0.15-0.04,0.23
		c-0.01,0.08-0.03,0.15-0.03,0.23c-0.01,0.08-0.01,0.14-0.01,0.19v0.45v2.17H406v-4.73h0.91V239.8z"/>
	<path class="st0" d="M414.14,235.12h0.91v4.83h0.02c0.42-0.62,0.97-0.93,1.65-0.93c0.66,0,1.19,0.25,1.61,0.74
		c0.41,0.48,0.62,1.06,0.62,1.74c0,0.72-0.21,1.33-0.61,1.82c-0.41,0.49-0.96,0.74-1.66,0.74c-0.32,0-0.63-0.08-0.91-0.24
		c-0.28-0.16-0.51-0.38-0.7-0.66h-0.02v0.74h-0.91V235.12z M416.49,243.24c0.48,0,0.85-0.16,1.12-0.5c0.28-0.33,0.41-0.74,0.41-1.22
		c0-0.47-0.14-0.87-0.41-1.2c-0.27-0.33-0.64-0.49-1.12-0.49c-0.45,0-0.81,0.16-1.09,0.5c-0.27,0.33-0.4,0.72-0.4,1.19
		c0,0.48,0.13,0.89,0.4,1.21C415.67,243.08,416.04,243.24,416.49,243.24z"/>
	<path class="st0" d="M419.07,239.16h1.06l1.6,3l1.48-3h1.02l-3.83,7.43h-1.03l1.86-3.52L419.07,239.16z"/>
	<path class="st0" d="M428.81,241.98l-0.87,1.91h-1.02l3.64-7.94l3.63,7.94h-1.02l-0.87-1.91H428.81z M430.56,238.03l-1.36,3.08
		h2.71L430.56,238.03z"/>
	<path class="st0" d="M435.68,243.89h-0.91v-8.77h0.91V243.89z"/>
	<path class="st0" d="M437.92,243.89h-0.91v-8.77h0.91V243.89z"/>
	<path class="st0" d="M441.38,240.28v0.76h-2.21v-0.76H441.38z"/>
	<path class="st0" d="M444.91,236.04c-0.28-0.13-0.48-0.19-0.6-0.19c-0.2,0-0.34,0.06-0.42,0.19c-0.09,0.12-0.15,0.28-0.18,0.46
		c-0.02,0.13-0.03,0.24-0.04,0.32c0,0.08,0,0.18,0,0.32v2.03h1.25v0.85h-1.25v3.88h-0.91v-3.88h-0.41v-0.85h0.41v-2.3
		c0-1.24,0.51-1.86,1.53-1.86c0.22,0,0.43,0.04,0.63,0.12V236.04z"/>
	<path class="st0" d="M446.31,239.93h0.03c0.12-0.28,0.28-0.5,0.51-0.66c0.22-0.16,0.49-0.24,0.79-0.24c0.25,0,0.5,0.08,0.75,0.23
		l-0.42,0.83c-0.15-0.13-0.33-0.19-0.56-0.19c-0.47,0-0.78,0.19-0.93,0.57c-0.07,0.18-0.11,0.35-0.14,0.52
		c-0.02,0.17-0.04,0.37-0.04,0.59v2.32h-0.91v-4.73h0.91V239.93z"/>
	<path class="st0" d="M449.44,241.68c0.01,0.42,0.15,0.79,0.4,1.1c0.26,0.31,0.6,0.46,1.02,0.46c0.33,0,0.6-0.07,0.81-0.23
		c0.21-0.15,0.41-0.38,0.6-0.69l0.77,0.44c-0.22,0.4-0.52,0.72-0.91,0.95c-0.39,0.23-0.82,0.35-1.28,0.35
		c-0.7,0-1.27-0.24-1.69-0.71c-0.42-0.48-0.63-1.07-0.63-1.78c0-0.75,0.2-1.36,0.59-1.84c0.39-0.47,0.96-0.71,1.71-0.71
		c0.73,0,1.28,0.24,1.65,0.71c0.37,0.47,0.56,1.07,0.56,1.81v0.14H449.44z M452.14,240.99c-0.06-0.36-0.19-0.65-0.42-0.86
		c-0.23-0.21-0.52-0.32-0.89-0.32c-0.18,0-0.34,0.03-0.49,0.09c-0.15,0.05-0.29,0.14-0.4,0.24c-0.12,0.11-0.22,0.24-0.3,0.38
		c-0.08,0.14-0.13,0.3-0.15,0.47H452.14z"/>
	<path class="st0" d="M454.37,241.68c0.01,0.42,0.15,0.79,0.4,1.1c0.26,0.31,0.6,0.46,1.02,0.46c0.33,0,0.6-0.07,0.81-0.23
		c0.21-0.15,0.41-0.38,0.6-0.69l0.76,0.44c-0.22,0.4-0.52,0.72-0.91,0.95c-0.39,0.23-0.81,0.35-1.28,0.35
		c-0.71,0-1.27-0.24-1.7-0.71c-0.41-0.48-0.62-1.07-0.62-1.78c0-0.75,0.2-1.36,0.6-1.84c0.39-0.47,0.96-0.71,1.71-0.71
		c0.72,0,1.28,0.24,1.64,0.71c0.38,0.47,0.57,1.07,0.57,1.81v0.14H454.37z M457.07,240.99c-0.05-0.36-0.2-0.65-0.42-0.86
		c-0.22-0.21-0.52-0.32-0.88-0.32c-0.18,0-0.34,0.03-0.49,0.09c-0.15,0.05-0.28,0.14-0.4,0.24c-0.12,0.11-0.22,0.24-0.29,0.38
		c-0.08,0.14-0.13,0.3-0.16,0.47H457.07z"/>
	<path class="st0" d="M460.92,240.28v0.76h-2.21v-0.76H460.92z"/>
	<path class="st0" d="M465.63,243.15h-0.02c-0.19,0.28-0.42,0.51-0.7,0.66c-0.28,0.16-0.58,0.24-0.9,0.24
		c-0.7,0-1.25-0.25-1.66-0.74c-0.41-0.49-0.61-1.1-0.61-1.82c0-0.68,0.21-1.26,0.62-1.74c0.41-0.49,0.95-0.74,1.61-0.74
		c0.68,0,1.23,0.31,1.65,0.93h0.02v-4.83h0.91v8.77h-0.91V243.15z M464.15,243.24c0.48,0,0.85-0.16,1.12-0.5
		c0.28-0.33,0.42-0.74,0.42-1.22c0-0.47-0.14-0.87-0.42-1.2c-0.27-0.33-0.64-0.49-1.12-0.49c-0.45,0-0.82,0.16-1.09,0.5
		c-0.27,0.33-0.4,0.72-0.4,1.19c0,0.48,0.13,0.89,0.4,1.21C463.33,243.08,463.69,243.24,464.15,243.24z"/>
	<path class="st0" d="M468.02,239.75c0.49-0.48,1.09-0.73,1.8-0.73c0.71,0,1.3,0.24,1.78,0.73c0.49,0.48,0.74,1.09,0.74,1.79
		c0,0.7-0.24,1.3-0.74,1.79c-0.48,0.48-1.08,0.72-1.78,0.72c-0.71,0-1.31-0.24-1.8-0.72c-0.49-0.49-0.73-1.09-0.73-1.79
		C467.3,240.83,467.54,240.23,468.02,239.75z M468.2,241.54c0,0.44,0.16,0.82,0.48,1.16c0.31,0.33,0.69,0.49,1.14,0.49
		c0.44,0,0.82-0.16,1.14-0.49c0.32-0.33,0.47-0.72,0.47-1.16c0-0.44-0.16-0.84-0.47-1.16c-0.31-0.32-0.7-0.48-1.14-0.48
		c-0.45,0-0.83,0.16-1.14,0.48C468.37,240.7,468.2,241.09,468.2,241.54z"/>
	<path class="st0" d="M474.79,242.18l1.39-3.27l1.39,3.27l1.38-3.01h1.03l-2.4,4.89l-1.39-3.16l-1.39,3.16l-2.4-4.89h1.03
		L474.79,242.18z"/>
	<path class="st0" d="M481.34,239.8h0.02c0.13-0.25,0.33-0.44,0.58-0.57c0.26-0.14,0.54-0.2,0.84-0.2c0.31,0,0.58,0.05,0.79,0.14
		c0.21,0.09,0.39,0.23,0.52,0.4c0.13,0.18,0.22,0.39,0.28,0.64c0.06,0.25,0.09,0.54,0.09,0.87v2.82h-0.91v-2.71
		c0-0.47-0.06-0.8-0.2-1.02c-0.14-0.22-0.41-0.33-0.84-0.33c-0.15,0-0.28,0.01-0.39,0.04c-0.1,0.03-0.2,0.08-0.28,0.13
		c-0.08,0.06-0.15,0.13-0.2,0.2c-0.06,0.07-0.11,0.16-0.15,0.25c-0.02,0.04-0.04,0.11-0.06,0.18c-0.02,0.07-0.03,0.15-0.05,0.23
		c-0.01,0.08-0.02,0.15-0.03,0.23c0,0.08-0.01,0.14-0.01,0.19v0.45v2.17h-0.91v-4.73h0.91V239.8z"/>
	<path class="st0" d="M486.66,243.89h-0.91v-8.77h0.91V243.89z"/>
	<path class="st0" d="M488.26,239.75c0.49-0.48,1.09-0.73,1.8-0.73c0.71,0,1.3,0.24,1.79,0.73c0.49,0.48,0.73,1.09,0.73,1.79
		c0,0.7-0.24,1.3-0.73,1.79c-0.49,0.48-1.08,0.72-1.79,0.72c-0.71,0-1.31-0.24-1.8-0.72c-0.49-0.49-0.73-1.09-0.73-1.79
		C487.53,240.83,487.77,240.23,488.26,239.75z M488.44,241.54c0,0.44,0.16,0.82,0.47,1.16c0.31,0.33,0.69,0.49,1.14,0.49
		c0.44,0,0.82-0.16,1.14-0.49c0.31-0.33,0.47-0.72,0.47-1.16c0-0.44-0.16-0.84-0.47-1.16c-0.32-0.32-0.7-0.48-1.14-0.48
		c-0.45,0-0.83,0.16-1.14,0.48C488.6,240.7,488.44,241.09,488.44,241.54z"/>
	<path class="st0" d="M497.85,243.89h-0.91v-0.74h-0.02c-0.4,0.6-0.94,0.9-1.61,0.9c-0.69,0-1.25-0.25-1.66-0.74
		c-0.4-0.49-0.61-1.1-0.61-1.82c0-0.68,0.2-1.26,0.62-1.74c0.41-0.49,0.95-0.74,1.61-0.74c0.68,0,1.22,0.31,1.64,0.93h0.02v-0.79
		h0.91V243.89z M495.45,243.24c0.48,0,0.85-0.16,1.12-0.5c0.28-0.33,0.41-0.74,0.41-1.22c0-0.47-0.14-0.87-0.41-1.2
		c-0.27-0.33-0.64-0.49-1.12-0.49c-0.45,0-0.81,0.16-1.09,0.5c-0.27,0.33-0.41,0.72-0.41,1.19c0,0.48,0.14,0.89,0.41,1.21
		C494.63,243.08,495,243.24,495.45,243.24z"/>
	<path class="st0" d="M502.55,243.15h-0.02c-0.19,0.28-0.43,0.51-0.7,0.66c-0.28,0.16-0.58,0.24-0.9,0.24
		c-0.7,0-1.26-0.25-1.66-0.74c-0.4-0.49-0.61-1.1-0.61-1.82c0-0.68,0.21-1.26,0.62-1.74c0.41-0.49,0.95-0.74,1.61-0.74
		c0.68,0,1.22,0.31,1.65,0.93h0.02v-4.83h0.91v8.77h-0.91V243.15z M501.07,243.24c0.48,0,0.85-0.16,1.12-0.5
		c0.28-0.33,0.41-0.74,0.41-1.22c0-0.47-0.14-0.87-0.41-1.2c-0.27-0.33-0.64-0.49-1.12-0.49c-0.45,0-0.82,0.16-1.09,0.5
		c-0.27,0.33-0.4,0.72-0.4,1.19c0,0.48,0.14,0.89,0.4,1.21C500.25,243.08,500.61,243.24,501.07,243.24z"/>
	<path class="st0" d="M506.07,243.47c0,0.16-0.06,0.3-0.17,0.41c-0.12,0.12-0.26,0.18-0.42,0.18c-0.16,0-0.3-0.06-0.41-0.18
		c-0.12-0.11-0.17-0.25-0.17-0.41c0-0.15,0.06-0.29,0.17-0.41c0.11-0.12,0.25-0.17,0.41-0.17c0.16,0,0.3,0.06,0.42,0.17
		C506.01,243.17,506.07,243.31,506.07,243.47z"/>
	<path class="st0" d="M511.03,240.51c-0.38-0.42-0.83-0.64-1.35-0.64c-0.44,0-0.82,0.17-1.12,0.5c-0.31,0.33-0.45,0.73-0.45,1.16
		c0,0.49,0.15,0.89,0.45,1.2c0.32,0.32,0.71,0.48,1.18,0.48c0.49,0,0.92-0.22,1.29-0.63v1.16c-0.39,0.21-0.82,0.32-1.3,0.32
		c-0.7,0-1.3-0.24-1.8-0.72c-0.49-0.47-0.73-1.06-0.73-1.76c0-0.73,0.24-1.34,0.73-1.82c0.49-0.48,1.11-0.73,1.85-0.73
		c0.49,0,0.9,0.11,1.25,0.31V240.51z"/>
	<path class="st0" d="M512.32,239.75c0.49-0.48,1.09-0.73,1.8-0.73c0.71,0,1.31,0.24,1.79,0.73c0.5,0.48,0.74,1.09,0.74,1.79
		c0,0.7-0.24,1.3-0.74,1.79c-0.48,0.48-1.08,0.72-1.79,0.72c-0.71,0-1.31-0.24-1.8-0.72c-0.48-0.49-0.73-1.09-0.73-1.79
		C511.59,240.83,511.83,240.23,512.32,239.75z M512.5,241.54c0,0.44,0.16,0.82,0.48,1.16c0.3,0.33,0.69,0.49,1.14,0.49
		c0.44,0,0.83-0.16,1.14-0.49c0.32-0.33,0.47-0.72,0.47-1.16c0-0.44-0.16-0.84-0.47-1.16c-0.31-0.32-0.7-0.48-1.14-0.48
		c-0.45,0-0.83,0.16-1.14,0.48C512.66,240.7,512.5,241.09,512.5,241.54z"/>
	<path class="st0" d="M518.35,239.76h0.02c0.13-0.22,0.31-0.39,0.54-0.53c0.23-0.14,0.46-0.21,0.71-0.21c0.59,0,1.04,0.28,1.37,0.84
		c0.15-0.26,0.35-0.46,0.61-0.61c0.26-0.15,0.54-0.22,0.84-0.22c1.05,0,1.57,0.68,1.57,2.04v2.83h-0.91v-2.68
		c0-0.12,0-0.24-0.02-0.36c-0.01-0.12-0.03-0.24-0.05-0.34c-0.03-0.11-0.07-0.22-0.12-0.31c-0.06-0.09-0.13-0.18-0.22-0.25
		c-0.12-0.08-0.28-0.12-0.46-0.12c-0.19,0-0.35,0.04-0.48,0.12c-0.13,0.07-0.23,0.17-0.3,0.28c-0.07,0.11-0.13,0.25-0.16,0.42
		c-0.04,0.17-0.07,0.32-0.08,0.46c-0.01,0.13-0.01,0.29-0.01,0.47v2.32h-0.91v-2.51c0-0.16,0-0.29-0.01-0.4
		c-0.01-0.11-0.03-0.24-0.06-0.41c-0.03-0.18-0.07-0.3-0.13-0.39c-0.05-0.09-0.14-0.17-0.25-0.25c-0.12-0.07-0.25-0.11-0.42-0.11
		c-0.46,0-0.76,0.2-0.9,0.6c-0.06,0.19-0.1,0.37-0.12,0.54c-0.02,0.16-0.03,0.36-0.03,0.6v2.32h-0.91v-4.73h0.91V239.76z"/>
</g>
</svg>
